<svg xmlns="http://www.w3.org/2000/svg" xmlns:xlink="http://www.w3.org/1999/xlink" width="162" height="41" viewBox="0 0 162 41">
    <defs>
        <path id="a" d="M0 40.983h161.695V.176H0z"/>
    </defs>
    <g fill="none" fill-rule="evenodd">
        <path fill="#22B14C" d="M19.51 16.36h5.205l-5.437 8.512v2.003h8.37v-2.217h-5.455l5.454-8.548v-1.968H19.51zM32.084 24.62h4.524l.751 2.253h2.594l-4.65-12.733h-1.95l-4.631 12.733h2.593l.769-2.253zm2.307-6.724l1.556 4.632H32.78l1.61-4.632z"/>
        <g transform="translate(0 .211)">
            <path fill="#22B14C" d="M58.672 22.157c0 1.467-.877 2.343-2.218 2.343s-2.2-.876-2.2-2.343v-8.28H51.77v8.37c0 2.7 2.074 4.47 4.685 4.47 2.612 0 4.686-1.77 4.686-4.47v-8.37h-2.468v8.28zM63.004 13.931v12.733h2.486v-4.793h2.45c2.629 0 4.202-1.806 4.202-3.97 0-2.163-1.573-3.97-4.202-3.97h-4.936zm6.653 3.97c0 1.037-.716 1.735-1.842 1.735H65.49v-3.487h2.325c1.126 0 1.842.715 1.842 1.752z"/>
            <mask id="b" fill="#fff">
                <use xlink:href="#a"/>
            </mask>
            <path fill="#22B14C" d="M84.213 26.664h2.486V13.932h-2.486zM46.42 19.49l4.536-5.558h-2.945l-4.48 5.532h-.009v-5.532h-2.485v12.732h2.485V19.48l6.653 7.704-.003-3.262-3.752-4.43zm-2.898-.015v-.009l.004.005-.004.004zM78.61 19.49l4.536-5.558H80.2l-4.48 5.532h-.009v-5.532h-2.486v12.732h2.486V19.48l6.653 7.704-.002-3.262-3.753-4.43zm-2.898-.015v-.009l.004.005-.004.004z" mask="url(#b)"/>
            <path fill="#12100B" d="M97.167 13.93H92.2v12.81h2.5v-4.822h2.466c2.643 0 4.226-1.818 4.226-3.993 0-2.177-1.583-3.995-4.226-3.995m-.128 5.74h-2.338v-3.51h2.338c1.134 0 1.853.72 1.853 1.765 0 1.042-.72 1.745-1.853 1.745M109.696 21.398c1.296-.69 2.029-1.996 2.029-3.473 0-2.177-1.583-3.994-4.227-3.994h-4.967V26.74h2.501v-4.82h.004v-2.25h-.004v-3.508h2.338c1.134 0 1.855.72 1.855 1.764 0 .79-.414 1.38-1.105 1.623h-2.852l6.679 7.773-.003-3.222-2.248-2.701zM117.91 13.822c-1.456 0-2.572.504-3.472 1.403-1.295 1.296-1.259 2.896-1.259 5.11 0 2.213-.036 3.814 1.26 5.11.899.898 2.015 1.401 3.47 1.401 1.459 0 2.556-.503 3.456-1.402 1.296-1.295 1.278-2.896 1.278-5.109 0-2.214.018-3.814-1.278-5.11-.9-.899-1.997-1.403-3.455-1.403m1.6 10.111c-.358.414-.916.683-1.6.683s-1.258-.27-1.618-.683c-.485-.54-.612-1.133-.612-3.598s.127-3.059.612-3.597c.36-.416.934-.684 1.618-.684s1.242.268 1.6.684c.487.538.63 1.132.63 3.597s-.143 3.058-.63 3.598M130.304 20.856l-3.346-6.925h-2.465V26.74h2.5v-7.465l2.465 4.856h1.692l2.445-4.856v7.465h2.502V13.931h-2.466zM137.617 26.74h2.681v-2.663h-2.681z" mask="url(#b)"/>
            <path fill="#22B14C" d="M88.002 26.74h2.681v-2.663h-2.681z" mask="url(#b)"/>
            <path fill="#12100B" d="M147.903 22.27c0 1.476-.882 2.358-2.23 2.358-1.351 0-2.213-.882-2.213-2.357v-8.33h-2.502v8.42c0 2.717 2.087 4.498 4.714 4.498 2.626 0 4.713-1.78 4.713-4.498v-8.42h-2.482v8.33zM157.018 13.94h-1.962l-4.659 12.81h2.608l.773-2.267h4.553l.755 2.267h2.609l-4.677-12.81zm-2.537 8.438l1.618-4.658 1.566 4.658h-3.184z" mask="url(#b)"/>
            <path fill="#22B14C" d="M.002 26.992L0 14.167l12.83-.002V26.99z" mask="url(#b)"/>
            <path fill="#22B14C" d="M.002 26.992L0 14.167l12.83-.002V26.99zM12.828 13.004l-12.826.002L12.826.176zM.002 28.155l12.826-.002L.004 40.983z" mask="url(#b)"/>
        </g>
    </g>
</svg>
