<svg xmlns="http://www.w3.org/2000/svg" width="78.564" height="84" viewBox="0 0 78.564 84"><defs><style>.a{fill:#f2c81f;}</style></defs><g transform="translate(-16.566)"><path d="M92.587,7.9A2.546,2.546,0,0,0,95.13,5.354V2.543A2.546,2.546,0,0,0,92.587,0H19.109a2.546,2.546,0,0,0-2.543,2.543V5.354A2.546,2.546,0,0,0,19.109,7.9h.175v7.181a1.23,1.23,0,0,0,2.461,0V7.9H89.951V57.077H21.745V20a1.23,1.23,0,0,0-2.461,0V57.077h-.175a2.546,2.546,0,0,0-2.543,2.543v2.811a2.546,2.546,0,0,0,2.543,2.543h7.936L22.545,80.7a2.59,2.59,0,0,0,2.49,3.3h5.327a2.6,2.6,0,0,0,2.49-1.877l1.019-3.559H50.541v2.846A2.592,2.592,0,0,0,53.13,84h5.436a2.592,2.592,0,0,0,2.589-2.589V78.564H77.826l1.019,3.559A2.6,2.6,0,0,0,81.334,84h5.327a2.59,2.59,0,0,0,2.489-3.3l-4.5-15.724h7.936a2.546,2.546,0,0,0,2.543-2.543V59.62a2.546,2.546,0,0,0-2.543-2.543h-.175V7.9ZM30.362,81.539H25.035a.128.128,0,0,1-.124-.164L29.6,65.006h5.594l-4.705,16.44a.129.129,0,0,1-.124.093Zm28.333-.128a.129.129,0,0,1-.128.128H53.13A.129.129,0,0,1,53,81.411V78.564h5.693ZM34.574,76.1l.851-2.975H76.271l.851,2.975Zm24.12-11.1v5.661H53V65.006ZM86.764,81.488a.121.121,0,0,1-.1.051H81.335a.129.129,0,0,1-.124-.093l-4.705-16.44H82.1l4.685,16.369a.121.121,0,0,1-.021.113Zm-11.2-10.821H61.156V64.974H73.937Zm17.1-11.047v2.811a.082.082,0,0,1-.082.082H45.069a1.23,1.23,0,0,0,0,2.461h5.471v5.693H36.13l1.629-5.693h2.388a1.23,1.23,0,0,0,0-2.461H19.109a.082.082,0,0,1-.082-.082V59.62a.082.082,0,0,1,.082-.082H92.587A.082.082,0,0,1,92.669,59.62ZM19.109,5.436a.082.082,0,0,1-.082-.082V2.543a.082.082,0,0,1,.082-.082H92.587a.082.082,0,0,1,.082.082V5.354a.082.082,0,0,1-.082.082Z"/><path class="a" d="M115.967,285.582a3.948,3.948,0,1,0,3.948-3.948A3.953,3.953,0,0,0,115.967,285.582Zm3.948-1.488a1.487,1.487,0,1,1-1.487,1.488A1.489,1.489,0,0,1,119.915,284.094Z" transform="translate(-83.093 -235.428)"/><path class="a" d="M351.849,74.75A3.948,3.948,0,1,0,347.9,70.8,3.953,3.953,0,0,0,351.849,74.75Zm0-5.436a1.487,1.487,0,1,1-1.487,1.487A1.489,1.489,0,0,1,351.849,69.314Z" transform="translate(-276.975 -55.885)"/><path class="a" d="M132.533,235.881a1.23,1.23,0,0,0,2.461,0v-2.718a1.23,1.23,0,0,0-2.461,0Z" transform="translate(-96.941 -193.881)"/><path class="a" d="M133.763,187.413a1.23,1.23,0,0,0,1.23-1.23v-2.718a1.23,1.23,0,0,0-2.461,0v2.718A1.231,1.231,0,0,0,133.763,187.413Z" transform="translate(-96.941 -152.336)"/><path class="a" d="M116.327,123.5a1.231,1.231,0,0,0,1.74,0l1.848-1.848,1.848,1.848a1.231,1.231,0,1,0,1.74-1.74l-1.848-1.848,1.848-1.848a1.23,1.23,0,1,0-1.74-1.74l-1.848,1.848-1.848-1.848a1.23,1.23,0,0,0-1.74,1.74l1.848,1.848-1.848,1.848A1.23,1.23,0,0,0,116.327,123.5Z" transform="translate(-83.093 -96.942)"/><path class="a" d="M222.9,224.01a1.231,1.231,0,0,0-1.74,0l-1.848,1.848-1.848-1.848a1.23,1.23,0,0,0-1.74,1.74l1.848,1.848-1.848,1.848a1.231,1.231,0,0,0,1.74,1.74l1.848-1.848,1.848,1.848a1.231,1.231,0,0,0,1.74-1.74l-1.848-1.848,1.848-1.848a1.231,1.231,0,0,0,0-1.74Z" transform="translate(-166.185 -186.957)"/><path class="a" d="M355.437,224.01a1.231,1.231,0,0,0-1.74,0l-1.848,1.848L350,224.01a1.23,1.23,0,1,0-1.74,1.74l1.848,1.848-1.848,1.848a1.231,1.231,0,0,0,1.74,1.74l1.848-1.848,1.848,1.848a1.231,1.231,0,0,0,1.74-1.74l-1.848-1.848,1.848-1.848A1.231,1.231,0,0,0,355.437,224.01Z" transform="translate(-276.975 -186.957)"/><path d="M166.9,140.357a1.23,1.23,0,1,0,0,2.461h32.616a1.23,1.23,0,0,0,1.23-1.23v-5.248l.617.617a1.231,1.231,0,0,0,1.74-1.74l-2.718-2.718a1.231,1.231,0,0,0-1.74,0l-2.718,2.718a1.23,1.23,0,1,0,1.74,1.74l.617-.617v4.018H166.9Z" transform="translate(-124.639 -110.459)"/></g></svg>