<svg xmlns="http://www.w3.org/2000/svg" width="15.048" height="17" viewBox="0 0 15.048 17"><defs><style>.a{fill:#17313b;}.b{fill:#ff3d2e;}</style></defs><g transform="translate(0 0.004)"><path class="a" d="M12.047,12.844a4.791,4.791,0,0,1-3.237,1.2,4.623,4.623,0,0,1-4.759-4.78A4.518,4.518,0,0,1,8.81,4.57a4.909,4.909,0,0,1,3.258,1.179l.6.514L15.326,3.6l-.665-.622A8.6,8.6,0,0,0,8.81.8,8.2,8.2,0,0,0,.3,9.242,8.342,8.342,0,0,0,8.81,17.8,8.6,8.6,0,0,0,14.7,15.566l.643-.6-2.7-2.658Z" transform="translate(-0.3 -0.8)"/><circle class="b" cx="3.857" cy="3.857" r="3.857" transform="translate(4.34 4.63)"/></g></svg>