<svg xmlns="http://www.w3.org/2000/svg" width="127.71" height="127.71" viewBox="0 0 127.71 127.71"><defs><style>.a{fill:#f8f8f8;}.b{fill:#fdf6df;}.c{fill:#fff;}.d{fill:#f2c82b;}</style></defs><g transform="translate(0 0)"><g transform="translate(2.129 2.128)"><path class="a" d="M97.4,45.571a13.963,13.963,0,0,1-7.854,12.643,13.136,13.136,0,0,1-5.9,1.384H21.75a14.037,14.037,0,0,1-12.3-20.242,13.857,13.857,0,0,1,9.94-7.556,25.042,25.042,0,0,1,3.257-21.285,23.793,23.793,0,0,1,40.4,1.469A16.773,16.773,0,0,1,69.9,10.515,17.358,17.358,0,0,1,87.074,28.054a17.664,17.664,0,0,1-.447,3.853A13.954,13.954,0,0,1,97.4,45.571Z" transform="translate(9.028 0)"/><path class="b" d="M91.012,48.571a13.689,13.689,0,0,1-1.469,6.258,13.136,13.136,0,0,1-5.9,1.384H21.75a14.037,14.037,0,0,1-12.3-20.242A12.683,12.683,0,0,1,13,34.8a19.721,19.721,0,0,1-.66-2.788,13.726,13.726,0,0,1,7.045-3.6A25.042,25.042,0,0,1,22.644,7.129,23.425,23.425,0,0,1,35.99,3,23.946,23.946,0,0,1,56.658,14.984a16.773,16.773,0,0,1,6.854-1.469A17.358,17.358,0,0,1,80.688,31.054a17.664,17.664,0,0,1-.447,3.853A13.954,13.954,0,0,1,91.012,48.571Z" transform="translate(9.028 3.386)"/><path class="a" d="M21.285,52.514V71.671A2.135,2.135,0,0,1,19.157,73.8H2.129A2.135,2.135,0,0,1,0,71.671V46.129A2.135,2.135,0,0,1,2.129,44H12.771Z" transform="translate(0 49.654)"/><path class="a" d="M69.285,52.514V71.671A2.135,2.135,0,0,1,67.156,73.8H50.129A2.135,2.135,0,0,1,48,71.671V46.129A2.135,2.135,0,0,1,50.129,44H60.771Z" transform="translate(54.168 49.654)"/><path class="a" d="M36.285,45.514V64.671A2.135,2.135,0,0,1,34.157,66.8H17.129A2.135,2.135,0,0,1,15,64.671V39.129A2.135,2.135,0,0,1,17.129,37H27.771Z" transform="translate(16.928 41.755)"/><path class="a" d="M54.285,45.514V64.671A2.135,2.135,0,0,1,52.157,66.8H35.128A2.135,2.135,0,0,1,33,64.671V39.129A2.135,2.135,0,0,1,35.128,37H45.771Z" transform="translate(37.241 41.755)"/><path class="b" d="M14.9,52.514V71.671A2.135,2.135,0,0,1,12.771,73.8H2.129A2.135,2.135,0,0,1,0,71.671V46.129A2.135,2.135,0,0,1,2.129,44H6.386Z" transform="translate(0 49.654)"/><path class="b" d="M62.9,52.514V71.671A2.135,2.135,0,0,1,60.771,73.8H50.129A2.135,2.135,0,0,1,48,71.671V46.129A2.135,2.135,0,0,1,50.129,44h4.257Z" transform="translate(54.168 49.654)"/><path class="b" d="M29.9,45.514V64.671A2.135,2.135,0,0,1,27.771,66.8H17.129A2.135,2.135,0,0,1,15,64.671V39.129A2.135,2.135,0,0,1,17.129,37h4.257Z" transform="translate(16.928 41.755)"/><path class="b" d="M47.9,45.514V64.671A2.135,2.135,0,0,1,45.771,66.8H35.128A2.135,2.135,0,0,1,33,64.671V39.129A2.135,2.135,0,0,1,35.128,37h4.257Z" transform="translate(37.241 41.755)"/><path class="a" d="M16.771,52.514v4.257H4V44H8.257Z" transform="translate(4.514 49.654)"/><path class="a" d="M64.771,52.514v4.257H52V44h4.257Z" transform="translate(58.682 49.654)"/><path class="a" d="M31.771,45.514v4.257H19V37h4.257Z" transform="translate(21.442 41.755)"/><path class="a" d="M49.771,45.514v4.257H37V37h4.257Z" transform="translate(41.755 41.755)"/></g><g transform="translate(2.129 2.129)"><path class="c" d="M42.375,0a26.642,26.642,0,0,1,3.235.213,23.874,23.874,0,0,0-16.581,10.3A25.042,25.042,0,0,0,25.773,31.8a14.017,14.017,0,0,0,2.363,27.8H21.75a14.037,14.037,0,0,1-12.3-20.242,13.857,13.857,0,0,1,9.94-7.556,25.042,25.042,0,0,1,3.257-21.285A23.792,23.792,0,0,1,42.375,0Z" transform="translate(9.028)"/><path class="c" d="M23.514,66.8H17.129A2.135,2.135,0,0,1,15,64.671V39.129A2.135,2.135,0,0,1,17.129,37h6.386a2.135,2.135,0,0,0-2.129,2.129V64.671A2.135,2.135,0,0,0,23.514,66.8Z" transform="translate(16.928 41.755)"/><path class="c" d="M41.514,66.8H35.128A2.135,2.135,0,0,1,33,64.671V39.129A2.135,2.135,0,0,1,35.128,37h6.386a2.135,2.135,0,0,0-2.129,2.129V64.671A2.135,2.135,0,0,0,41.514,66.8Z" transform="translate(37.241 41.755)"/><path class="c" d="M8.514,73.8H2.129A2.135,2.135,0,0,1,0,71.671V46.129A2.135,2.135,0,0,1,2.129,44H8.514a2.135,2.135,0,0,0-2.129,2.128V71.671A2.135,2.135,0,0,0,8.514,73.8Z" transform="translate(0 49.654)"/><path class="c" d="M56.514,73.8H50.129A2.135,2.135,0,0,1,48,71.671V46.129A2.135,2.135,0,0,1,50.129,44h6.386a2.135,2.135,0,0,0-2.129,2.128V71.671A2.135,2.135,0,0,0,56.514,73.8Z" transform="translate(54.168 49.654)"/></g><path class="c" d="M14,34.541A27.108,27.108,0,0,1,21.374,7,26.042,26.042,0,0,1,39.039,0V4.257a21.771,21.771,0,0,0-14.764,5.861,22.842,22.842,0,0,0-6.2,23.193Z" transform="translate(14.501 0)"/><path class="d" d="M35.689,0A26.042,26.042,0,0,0,18.025,7,15.361,15.361,0,0,0,16.4,8.65a2.046,2.046,0,0,0,.225,3.064,2.251,2.251,0,0,0,2.936-.213,11.941,11.941,0,0,1,1.361-1.383A21.614,21.614,0,0,1,54.519,15.2a2.127,2.127,0,0,0,2.71.861A14.429,14.429,0,0,1,63.2,14.775a15.251,15.251,0,0,1,15.063,15.4,15.583,15.583,0,0,1-.395,3.391,2.128,2.128,0,0,0,1.6,2.541A11.915,11.915,0,0,1,76.95,59.6H58.775a2.129,2.129,0,0,0,0,4.257H76.95a16.185,16.185,0,0,0,5.414-31.324,18.673,18.673,0,0,0,.152-2.357A19.511,19.511,0,0,0,63.2,10.518a18.648,18.648,0,0,0-5.985.978A25.871,25.871,0,0,0,35.689,0Z" transform="translate(17.851 0)"/><path class="d" d="M14.4,10.837a1.247,1.247,0,0,0,.322.238,2.969,2.969,0,0,0,.391.167,2.486,2.486,0,0,0,1.64-.1,2.083,2.083,0,0,0,1.073-2.623,2.444,2.444,0,0,0-.448-.7,2.278,2.278,0,0,0-.65-.519,2.058,2.058,0,0,0-1.625-.1,2.379,2.379,0,0,0-1.242,1.223,2.465,2.465,0,0,0,.029,1.743l.212.355A1.466,1.466,0,0,0,14.4,10.837Z" transform="translate(15.481 8)"/><path class="d" d="M8,35.307A16.037,16.037,0,0,0,23.882,51.459H37.8a2.128,2.128,0,1,0,0-4.257H23.882a11.9,11.9,0,0,1-2-23.577,2.129,2.129,0,0,0,1.72-2.47,2.008,2.008,0,0,0-.091-.23l.034-.01a21.946,21.946,0,0,1-.92-7.7A2.257,2.257,0,0,0,20.681,11a2.042,2.042,0,0,0-2.307,2.022,25.313,25.313,0,0,0,.556,6.986A16.064,16.064,0,0,0,8,35.307Z" transform="translate(9.028 12.396)"/><path class="d" d="M127.085,77.963l-8.511-8.511a2.156,2.156,0,0,0-1.507-.625h-2.128V49.671a6.392,6.392,0,0,0-6.386-6.386H70.241V26.257h8.514a2.129,2.129,0,0,0,0-4.257h-29.8a2.129,2.129,0,1,0,0,4.257h4.257V43.285H14.9a6.392,6.392,0,0,0-6.386,6.386V68.827H4.257A4.261,4.261,0,0,0,0,73.084V98.626a4.261,4.261,0,0,0,4.257,4.257H21.285a4.261,4.261,0,0,0,4.257-4.257V79.47a2.159,2.159,0,0,0-.624-1.506l-8.513-8.513a2.159,2.159,0,0,0-1.506-.624H12.771V49.671A2.131,2.131,0,0,1,14.9,47.542H40.442v6.386H36.185a4.261,4.261,0,0,0-4.257,4.257V83.727a4.261,4.261,0,0,0,4.257,4.257H53.213a4.261,4.261,0,0,0,4.257-4.257V64.57a2.159,2.159,0,0,0-.624-1.506l-8.513-8.513a2.159,2.159,0,0,0-1.506-.624H44.7V47.542H55.341a2.128,2.128,0,0,0,2.129-2.128V26.257h8.514V45.414a2.128,2.128,0,0,0,2.128,2.128H78.755v6.386H74.5a4.261,4.261,0,0,0-4.257,4.257V83.727A4.261,4.261,0,0,0,74.5,87.984H91.526a4.261,4.261,0,0,0,4.257-4.257V64.57a2.159,2.159,0,0,0-.624-1.506l-8.513-8.513a2.159,2.159,0,0,0-1.506-.624H83.012V47.542h25.542a2.131,2.131,0,0,1,2.129,2.129V68.827h-4.257a4.262,4.262,0,0,0-4.257,4.257V98.626a4.262,4.262,0,0,0,4.257,4.257h17.028a4.262,4.262,0,0,0,4.257-4.257V79.47A2.157,2.157,0,0,0,127.085,77.963ZM4.257,98.626V73.084H8.514V83.727a2.129,2.129,0,0,0,2.129,2.129H21.285V98.626Zm9.761-25.542,7.267,7.267V81.6H12.771V73.084ZM36.185,83.727V58.185h4.257V68.827a2.129,2.129,0,0,0,2.129,2.129H53.213V83.727Zm9.761-25.542,7.267,7.267V66.7H44.7V58.185ZM74.5,83.727V58.185h4.257V68.827a2.129,2.129,0,0,0,2.128,2.129H91.526V83.727Zm9.761-25.542,7.267,7.267V66.7H83.012V58.185Zm30.68,14.9h1.247l7.267,7.267V81.6h-8.514Zm-8.514,25.542V73.084h4.257V83.727a2.128,2.128,0,0,0,2.129,2.129h10.643V98.626Z" transform="translate(0 24.827)"/></g></svg>