<svg xmlns="http://www.w3.org/2000/svg" width="36.644" height="33.338" viewBox="0 0 36.644 33.338"><defs><style>.a{fill:#fe8842;stroke:#fe8842;stroke-width:0.5px;}</style></defs><path class="a" d="M33.493,25.823c2.4-7.451-1.876-17.078-10.3-23.051a.623.623,0,0,0-.881.851c3.64,5.535,4.575,11.142,2.619,15.512C19.1,15.2,8.557,6,8.447,5.907a.623.623,0,0,0-.93.811c.164.249,3.111,4.72,6.285,8.607-2.288-1.634-4.812-3.7-9.3-7.458a.622.622,0,0,0-.931.8c4.449,7.3,11.854,14.074,15.5,17.178C10.658,29.617,1.064,23.415.965,23.35a.623.623,0,0,0-.863.862c1.835,2.79,4.357,4.864,7.579,7.12a21.3,21.3,0,0,0,12.19,4.134,12.78,12.78,0,0,0,8.558-2.81,2.452,2.452,0,0,1,2.488-.305,11.76,11.76,0,0,1,3.9,2.576.622.622,0,0,0,1.054-.293,9.71,9.71,0,0,0,.249-2.19A9.575,9.575,0,0,0,33.493,25.823Zm1.339,7.444a11.458,11.458,0,0,0-3.566-2.113,3.6,3.6,0,0,0-3.726.63C24.5,34.608,16.547,36.02,8.394,30.311A34.338,34.338,0,0,1,3,25.862a28.544,28.544,0,0,0,3.846,1.475c5.089,1.531,9.809,1.255,13.652-.8a.623.623,0,0,0,.1-1.027A89.337,89.337,0,0,1,7.112,11.662a72.165,72.165,0,0,0,9.989,7.3.623.623,0,0,0,.755-.981A66.447,66.447,0,0,1,11.3,9.989,170.074,170.074,0,0,0,24.845,20.568a.622.622,0,0,0,.89-.232c2.165-4.113,1.88-9.28-.719-14.52,6.4,5.744,9.389,13.747,7.178,19.961a.623.623,0,0,0,.151.654,8.355,8.355,0,0,1,2.527,6.012Q34.873,32.857,34.832,33.267Z" transform="translate(0.277 -2.378)"/></svg>