<svg id="Capa_1" enable-background="new 0 0 512 512" height="25" viewBox="0 0 512 512" width="25" xmlns="http://www.w3.org/2000/svg"><g><path d="m480.737 273.616h31.263v-2.463c0-10.793-4.538-21.057-12.484-28.315l-61.726-39.816h-243.029c-16.985 0-32.684-7.707-43.073-21.144-10.389-13.438-13.894-30.571-9.617-47.01l24.66-94.782h-83.633l-40.989 59.491c20.396 14.163 32.776 37.426 32.776 62.468v34.421c0 41.545-33.487 75.396-74.885 76.028v88.603c0 20.245 16.471 36.716 36.716 36.716h5.556c7.153-42.012 43.813-74.101 87.832-74.101s80.678 32.088 87.831 74.101c.831 4.878 1.269 9.889 1.269 15s-.439 10.122-1.269 15h76.129c-.831-4.878-1.269-9.889-1.269-15s.439-10.122 1.269-15c7.153-42.012 43.812-74.101 87.831-74.101s80.679 32.088 87.832 74.101h27.106c8.363 0 15.166-6.803 15.166-15.165v-79.031h-31.263c-8.284 0-15-6.716-15-15s6.717-15.001 15.001-15.001zm-266.64 1.271h-52.835c-8.284 0-15-6.716-15-15s6.716-15 15-15h52.835c8.284 0 15 6.716 15 15s-6.716 15-15 15z"/><path d="m194.761 173.021h219.169l-63.78-94.15c-16.452-24.286-43.786-38.785-73.12-38.785h-79.308c-.013.053-.019.105-.033.158l-26.584 102.179c-1.92 7.38-.346 15.072 4.318 21.105 4.664 6.034 11.712 9.493 19.338 9.493z"/><path d="m381.896 353.712c-32.588 0-59.101 26.513-59.101 59.101 0 32.589 26.512 59.102 59.101 59.102s59.101-26.513 59.101-59.102c0-32.588-26.513-59.101-59.101-59.101z"/><path d="m130.104 353.712c-32.588 0-59.101 26.513-59.101 59.101 0 32.589 26.513 59.102 59.101 59.102s59.101-26.513 59.101-59.102c0-32.588-26.513-59.101-59.101-59.101z"/><path d="m44.885 196.466v-34.421c0-15.173-7.553-29.264-19.968-37.855l-.093.475-15.353 22.283c-6.197 10.657-9.471 22.792-9.471 35.126v60.419c.597-.015 1.192-.038 1.783-.075 24.023-1.53 43.102-21.549 43.102-45.952z"/></g></svg>