<svg xmlns="http://www.w3.org/2000/svg" width="87.508" height="106.688" viewBox="0 0 87.508 106.688"><defs><style>.a{fill:#fdf6df;}.b{fill:#fbeebf;}.c,.e{fill:#f2c82b;}.d,.e{stroke:none;}</style></defs><g class="a" transform="translate(0 24.579)"><path class="d" d="M 29.11640930175781 80.10842895507812 L 29.01816749572754 80.10842895507812 C 25.8056526184082 80.08795928955078 22.48976516723633 78.46579742431641 19.16228485107422 75.28692626953125 C 16.06797218322754 72.33080291748047 13.01315879821777 68.02639007568359 10.32809638977051 62.83902740478516 C 5.34679651260376 53.21550369262695 1.999996781349182 41.262939453125 1.999996781349182 33.09658813476562 C 1.999996781349182 27.12322616577148 3.041759252548218 21.85149002075195 5.096334457397461 17.42781448364258 C 6.815421581268311 13.72646427154541 9.252946853637695 10.59152698516846 12.34118461608887 8.110076904296875 C 14.87362194061279 6.075226783752441 17.77864646911621 4.51548957824707 20.97557258605957 3.474201917648315 C 23.40545845031738 2.682764530181885 25.97439765930176 2.22883939743042 28.02368354797363 2.22883939743042 C 31.19194602966309 2.22883939743042 34.75824737548828 3.544714450836182 37.90472030639648 4.705677032470703 C 40.4964714050293 5.659602165222168 42.94307327270508 6.560101985931396 44.63469696044922 6.560101985931396 C 45.72294616699219 6.560101985931396 47.24828338623047 5.987251758575439 49.63109588623047 5.043789386749268 L 49.70218276977539 5.015639305114746 C 53.07896041870117 3.671314477920532 57.27704620361328 2.000001907348633 62.02087020874023 2.000001907348633 L 62.05127334594727 2.000001907348633 C 63.85648345947266 2.000001907348633 67.47071075439453 2.209389448165894 71.39405822753906 3.611689567565918 C 76.20182037353516 5.33010196685791 80.03217315673828 8.292789459228516 82.77873229980469 12.41742706298828 L 83.36722564697266 13.30178928375244 L 82.52156066894531 13.93990230560303 C 80.81674957275391 15.22627735137939 78.24264526367188 17.16860198974609 76.12109375 20.01366424560547 C 73.54742431640625 23.46504020690918 72.24246215820312 27.44577789306641 72.24246215820312 31.84530258178711 C 72.24246215820312 36.98487854003906 73.69933319091797 41.38539123535156 76.57260894775391 44.92457580566406 C 78.94355773925781 47.84503936767578 81.78221893310547 49.55291366577148 83.47825622558594 50.57334136962891 L 83.48258209228516 50.57595062255859 L 83.49040985107422 50.58065032958984 C 84.95565795898438 51.46212768554688 85.44675445556641 51.85697555541992 85.50251770019531 52.51969909667969 C 85.18482971191406 53.77024459838867 82.68032836914062 60.56072235107422 78.40093231201172 67.237548828125 C 74.68490600585938 73.03542327880859 68.82293701171875 79.94672393798828 61.99939727783203 79.94672393798828 C 58.71113586425781 79.94672393798828 56.40217208862305 78.965087890625 54.16921997070312 78.01576232910156 C 51.74348449707031 76.9837646484375 49.45288467407227 76.00925445556641 45.71802139282227 76.00925445556641 C 43.66477203369141 76.00925445556641 41.3720703125 76.8687744140625 38.94474792480469 77.77877807617188 L 38.91983413696289 77.78807830810547 C 36.00553512573242 78.87568664550781 32.70240783691406 80.10842895507812 29.11640930175781 80.10842895507812 Z"/><path class="e" d="M 29.11640930175781 78.10842895507812 C 32.34137725830078 78.10842895507812 35.33016204833984 76.99299621582031 38.22054672241211 75.91429138183594 L 38.24267196655273 75.90604400634766 C 40.84457778930664 74.93059539794922 43.30217742919922 74.00926208496094 45.71802520751953 74.00926208496094 C 49.860595703125 74.00926208496094 52.44865417480469 75.11030578613281 54.95162582397461 76.17515563964844 C 57.09451675415039 77.08619689941406 59.11857986450195 77.94672393798828 61.99939346313477 77.94672393798828 C 64.38399505615234 77.94672393798828 66.89513397216797 76.87481689453125 69.46307373046875 74.76079559326172 C 71.84757995605469 72.79776763916016 74.23075103759766 69.9925537109375 76.54640960693359 66.42305755615234 C 80.12002563476562 60.91446685791016 82.51685333251953 55.11811828613281 83.31082153320312 52.8263053894043 C 83.0501708984375 52.64982604980469 82.71510314941406 52.44826126098633 82.45939636230469 52.29442977905273 L 82.45151519775391 52.28969192504883 L 82.44719696044922 52.28709030151367 C 80.63873291015625 51.19902801513672 77.61191558837891 49.37793731689453 75.01988983154297 46.1851692199707 C 71.84980773925781 42.2803840637207 70.24245452880859 37.45576858520508 70.24245452880859 31.84530639648438 C 70.24245452880859 27.00544548034668 71.68088531494141 22.62246131896973 74.51779174804688 18.81807518005371 C 76.53987884521484 16.10640144348145 78.88820648193359 14.19467067718506 80.64621734619141 12.85167217254639 C 78.18247222900391 9.44285774230957 74.84716033935547 6.969822406768799 70.72091674804688 5.494998931884766 C 67.08162689208984 4.194230079650879 63.72700881958008 3.999999046325684 62.05126953125 3.999999046325684 L 62.02087020874023 3.999999046325684 C 57.66056442260742 3.999999046325684 53.827392578125 5.52601432800293 50.44546890258789 6.87239933013916 L 50.44193267822266 6.873814582824707 L 50.43837738037109 6.875214576721191 L 50.36745452880859 6.90329122543335 C 47.77308654785156 7.930521965026855 46.10822296142578 8.560091018676758 44.63470077514648 8.560091018676758 C 42.72928619384766 8.560091018676758 40.45999526977539 7.777337551116943 37.21237945556641 6.582029819488525 C 34.2230110168457 5.479029655456543 30.83479309082031 4.228845119476318 28.02368545532227 4.228845119476318 C 27.14960861206055 4.228845119476318 24.77342414855957 4.340614318847656 21.59497833251953 5.375875949859619 C 18.62897872924805 6.341952800750732 15.93702507019043 7.786414623260498 13.59391689300537 9.669137954711914 C 10.7474250793457 11.95635318756104 8.498701095581055 14.85018348693848 6.910240173339844 18.2702751159668 C 4.979147911071777 22.42809104919434 4.000009059906006 27.41638374328613 4.000009059906006 33.09659957885742 C 4.000009059906006 36.79232406616211 4.765778541564941 41.60276794433594 6.156239986419678 46.64181518554688 C 7.620270729064941 51.94746017456055 9.677055358886719 57.23046112060547 12.10427093505859 61.91966247558594 C 14.68899345397949 66.91318511962891 17.60734748840332 71.03544616699219 20.5438404083252 73.84078216552734 C 23.48843574523926 76.65388488769531 26.34213066101074 78.08968353271484 29.02616310119629 78.10842895507812 L 29.11640930175781 78.10842895507812 M 29.11640930175781 82.10842895507812 L 29.01263999938965 82.10842895507812 C 13.13427066802979 82.01695251464844 9.246826266462449e-06 49.60376739501953 9.246826266462449e-06 33.09659957885742 C 9.246826266462449e-06 6.132060527801514 20.22797775268555 0.2288452535867691 28.02368545532227 0.2288452535867691 C 31.53688621520996 0.2288452535867691 35.28826904296875 1.608476042747498 38.59703826904297 2.829337596893311 C 40.91082382202148 3.680937528610229 43.30381011962891 4.560091495513916 44.63470077514648 4.560091495513916 C 45.43131637573242 4.560091495513916 47.30856323242188 3.81224513053894 48.96596145629883 3.156075954437256 C 52.50062561035156 1.748891353607178 56.89900970458984 -9.070762985174952e-07 62.02087020874023 -9.070762985174952e-07 C 62.03001022338867 -9.070762985174952e-07 62.04231643676758 -9.070762985174952e-07 62.05126953125 -9.070762985174952e-07 C 65.87579345703125 -9.070762985174952e-07 77.47185516357422 0.8393529653549194 84.44344329833984 11.30892181396484 L 86.07646942138672 13.76296806335449 L 83.72622680664062 15.53638362884521 C 80.36868286132812 18.06986045837402 74.24245452880859 22.69115257263184 74.24245452880859 31.84530639648438 C 74.24245452880859 42.68721389770508 81.18050384521484 46.85681533813477 84.51365661621094 48.86221313476562 C 85.98503875732422 49.74736785888672 87.50802612304688 50.66007614135742 87.50802612304688 52.65630722045898 C 87.50802612304688 53.95969009399414 77.10551452636719 81.94672393798828 61.99939346313477 81.94672393798828 C 58.30305480957031 81.94672393798828 55.69022369384766 80.83566284179688 53.3856086730957 79.85585784912109 C 51.05368804931641 78.86378479003906 49.04202651977539 78.00926208496094 45.71802520751953 78.00926208496094 C 44.03311538696289 78.00926208496094 41.90246963500977 78.80586242675781 39.64682388305664 79.6514892578125 C 36.5643310546875 80.80187225341797 33.07530212402344 82.10842895507812 29.11640930175781 82.10842895507812 Z"/></g><path class="b" d="M20.043,0C20.437,14.185,10.292,24.026.159,23.409-1.511,12.089,10.291,0,20.043,0Z" transform="translate(43.578)"/><path class="c" d="M20.043,0C20.437,14.185,10.292,24.026.159,23.409-1.511,12.089,10.291,0,20.043,0Z" transform="translate(46.423 0.711)"/></svg>