<svg xmlns="http://www.w3.org/2000/svg" width="128.025" height="128.025" viewBox="0 0 128.025 128.025"><defs><style>.a{fill:#f2c82b;}.a,.c{opacity:0;}.b,.d{fill:#fdf6df;}.b{opacity:0.5;}.c{fill:#fbeebf;}.e{fill:#fff;}.f{fill:#f2f2f2;}</style></defs><g transform="translate(2.134 21.338)"><path class="a" d="M51.21,0V85.35H4.268A4.28,4.28,0,0,1,0,81.083V76.815l14.936-19.2V4.268A4.28,4.28,0,0,1,19.2,0Z"/><path class="a" d="M85.21,76.815v4.268a4.28,4.28,0,0,1-4.268,4.268H34V0H66.006a4.28,4.28,0,0,1,4.268,4.268V57.611Z" transform="translate(38.548)"/><path class="b" d="M42.675,0V85.35H4.268A4.28,4.28,0,0,1,0,81.083V76.815l14.936-19.2V4.268A4.28,4.28,0,0,1,19.2,0Z" transform="translate(0)"/><path class="b" d="M76.675,76.815v4.268a4.28,4.28,0,0,1-4.268,4.268H34V0H57.471a4.28,4.28,0,0,1,4.267,4.268V57.611Z" transform="translate(38.548)"/><path class="c" d="M85.21,46.2H34V27H70.274Z" transform="translate(23.548 28.611)"/><path class="c" d="M51.21,27V46.2H0L14.936,27Z" transform="translate(0 30.611)"/><path class="d" d="M76.675,46.2H34V27H61.739Z" transform="translate(38.548 30.611)"/><path class="d" d="M42.675,27V46.2H0L14.936,27Z" transform="translate(0 30.611)"/><path class="d" d="M85.21,36v4.268a4.28,4.28,0,0,1-4.268,4.268H34V36Z" transform="translate(38.548 40.815)"/><path class="d" d="M51.21,36v8.535H4.268A4.28,4.28,0,0,1,0,40.268V36Z" transform="translate(0 40.815)"/></g><g transform="translate(2.134 21.216)"><rect class="e" width="5.972" height="85.593" transform="translate(72.827 0)"/><path class="e" d="M25.605,0a4.28,4.28,0,0,0-4.268,4.268V57.611L6.4,76.815v4.268a4.28,4.28,0,0,0,4.268,4.268h-6.4A4.28,4.28,0,0,1,0,81.083V76.815l14.936-19.2V4.268A4.28,4.28,0,0,1,19.2,0Z" transform="translate(0 0.122)"/></g><path class="e" d="M11.268,12V65.344H7V12Z" transform="translate(7.936 13.605)"/><path class="f" d="M9.147,23.268a2.142,2.142,0,0,0,1.515-3.649l-.32-.256a1.62,1.62,0,0,0-.384-.193,1.354,1.354,0,0,0-.385-.127A3.105,3.105,0,0,0,9.147,19a2.24,2.24,0,0,0-1.515.619,2.1,2.1,0,0,0,.7,3.478A2.134,2.134,0,0,0,9.147,23.268Z" transform="translate(7.923 21.541)"/><path class="f" d="M127.861,97.34c-.013-.031-.035-.055-.049-.085a2.1,2.1,0,0,0-.236-.412L113.089,78.217V25.605a6.408,6.408,0,0,0-6.4-6.4H74.681a2.134,2.134,0,0,0-2.134,2.134v85.35a2.134,2.134,0,0,0,2.134,2.134H98.153v12.8a2.137,2.137,0,0,1-2.134,2.134H66.146V4.268H89.618A2.137,2.137,0,0,1,91.751,6.4V9.785L88.993,7.026a2.134,2.134,0,0,0-3.017,3.017l6.4,6.4a2.1,2.1,0,0,0,.631.419,2.016,2.016,0,0,0,.219.078,2.105,2.105,0,0,0,.511.1c.05,0,.1.029.148.029.029,0,.057-.016.087-.017a2.143,2.143,0,0,0,.662-.129c.02-.008.041-.007.061-.015l.007,0a2.105,2.105,0,0,0,.626-.419c.02-.019.046-.024.066-.044l6.4-6.4a2.134,2.134,0,0,0-3.017-3.017L96.019,9.785V6.4a6.408,6.408,0,0,0-6.4-6.4H36.274a6.408,6.408,0,0,0-6.4,6.4V19.2H21.338a6.408,6.408,0,0,0-6.4,6.4V34.14a2.134,2.134,0,0,0,4.268,0V25.605a2.137,2.137,0,0,1,2.134-2.134H51.21V76.815H19.2V51.21a2.134,2.134,0,0,0-4.268,0V78.217L.449,96.843a2.1,2.1,0,0,0-.236.412c-.014.03-.036.054-.049.085a2.112,2.112,0,0,0-.148.732c0,.028-.016.052-.016.08v4.268a6.408,6.408,0,0,0,6.4,6.4H53.344a2.134,2.134,0,0,0,2.134-2.134V21.338A2.134,2.134,0,0,0,53.344,19.2H34.14V6.4a2.137,2.137,0,0,1,2.134-2.134H61.879v119.49h-19.2a2.137,2.137,0,0,1-2.134-2.134V118.24L43.3,121a2.134,2.134,0,1,0,3.017-3.017l-6.4-6.4a2.106,2.106,0,0,0-.634-.421,2.007,2.007,0,0,0-.209-.074,2.1,2.1,0,0,0-.529-.1,2.051,2.051,0,0,0-.217-.011,2.11,2.11,0,0,0-.672.131c-.019.007-.038.007-.057.014l-.007,0a2.105,2.105,0,0,0-.626.419c-.02.019-.046.024-.066.044l-6.4,6.4A2.134,2.134,0,1,0,33.515,121l2.759-2.759v3.384a6.408,6.408,0,0,0,6.4,6.4H96.019a6.408,6.408,0,0,0,6.4-6.4v-12.8h19.2a6.408,6.408,0,0,0,6.4-6.4V98.153c0-.029-.015-.052-.016-.08A2.112,2.112,0,0,0,127.861,97.34ZM18.114,81.083h33.1v6.4H29.873a2.134,2.134,0,1,0,0,4.268H51.21v4.268H6.5ZM4.268,102.42v-2.134H51.21v4.268H6.4A2.137,2.137,0,0,1,4.268,102.42ZM76.815,91.751H98.153a2.134,2.134,0,1,0,0-4.268H76.815v-6.4h33.1l11.618,14.936H76.815Zm32.006-66.146v51.21H76.815V23.471h29.873A2.137,2.137,0,0,1,108.822,25.605Zm14.936,76.815a2.137,2.137,0,0,1-2.134,2.134H76.815v-4.268h46.943Z"/><path class="f" d="M12.268,41H10.134a2.134,2.134,0,1,0,0,4.268h2.134a2.134,2.134,0,1,0,0-4.268Z" transform="translate(9.07 46.484)"/><path class="f" d="M53.268,41H51.134a2.134,2.134,0,1,0,0,4.268h2.134a2.134,2.134,0,0,0,0-4.268Z" transform="translate(55.554 46.484)"/></svg>