<svg xmlns="http://www.w3.org/2000/svg" width="139.932" height="139.932" viewBox="0 0 139.932 139.932"><defs><style>.a{fill:#f8f8f8;}.b{fill:#fdf6df;}.c{fill:#fff;}.d{fill:#f2f2f2;}</style></defs><g transform="translate(0)"><g transform="translate(2.332 2.332)"><path class="a" d="M55.973,23.322v9.329a4.678,4.678,0,0,1,4.664,4.664V51.309a4.678,4.678,0,0,1-4.664,4.664V65.3a4.678,4.678,0,0,1,4.664,4.664V83.959a4.678,4.678,0,0,1-4.664,4.664H4.664A4.678,4.678,0,0,1,0,83.959V69.966A4.678,4.678,0,0,1,4.664,65.3V55.973A4.678,4.678,0,0,1,0,51.309V37.315a4.678,4.678,0,0,1,4.664-4.664V23.322A4.678,4.678,0,0,1,0,18.658V4.664A4.678,4.678,0,0,1,4.664,0H55.973a4.678,4.678,0,0,1,4.664,4.664V18.658A4.678,4.678,0,0,1,55.973,23.322Z" transform="translate(0 0)"/><path class="a" d="M87.973,43.322v9.329a4.678,4.678,0,0,1,4.664,4.664V71.309a4.678,4.678,0,0,1-4.664,4.664V85.3a4.678,4.678,0,0,1,4.664,4.664v13.993a4.678,4.678,0,0,1-4.664,4.664H36.664A4.678,4.678,0,0,1,32,103.959V89.966A4.678,4.678,0,0,1,36.664,85.3V75.973A4.678,4.678,0,0,1,32,71.309V57.315a4.678,4.678,0,0,1,4.664-4.664V43.322A4.678,4.678,0,0,1,32,38.658V24.664A4.678,4.678,0,0,1,36.664,20H87.973a4.678,4.678,0,0,1,4.664,4.664V38.658A4.678,4.678,0,0,1,87.973,43.322Z" transform="translate(42.631 26.644)"/><path class="b" d="M48.976,23.322v9.329a4.678,4.678,0,0,1,4.664,4.664V51.309a4.678,4.678,0,0,1-4.664,4.664V65.3a4.678,4.678,0,0,1,4.664,4.664V83.959a4.678,4.678,0,0,1-4.664,4.664H4.664A4.678,4.678,0,0,1,0,83.959V69.966A4.678,4.678,0,0,1,4.664,65.3V55.973A4.678,4.678,0,0,1,0,51.309V37.315a4.678,4.678,0,0,1,4.664-4.664V23.322A4.678,4.678,0,0,1,0,18.658V4.664A4.678,4.678,0,0,1,4.664,0H48.976a4.678,4.678,0,0,1,4.664,4.664V18.658A4.678,4.678,0,0,1,48.976,23.322Z" transform="translate(0 0)"/><path class="b" d="M80.976,43.322v9.329a4.678,4.678,0,0,1,4.664,4.664V71.309a4.678,4.678,0,0,1-4.664,4.664V85.3a4.678,4.678,0,0,1,4.664,4.664v13.993a4.678,4.678,0,0,1-4.664,4.664H36.664A4.678,4.678,0,0,1,32,103.959V89.966A4.678,4.678,0,0,1,36.664,85.3V75.973A4.678,4.678,0,0,1,32,71.309V57.315a4.678,4.678,0,0,1,4.664-4.664V43.322A4.678,4.678,0,0,1,32,38.658V24.664A4.678,4.678,0,0,1,36.664,20H80.976a4.678,4.678,0,0,1,4.664,4.664V38.658A4.678,4.678,0,0,1,80.976,43.322Z" transform="translate(42.631 26.644)"/><rect class="a" width="52.216" height="8.703" transform="translate(4.195 23.776)"/><rect class="a" width="52.216" height="8.703" transform="translate(4.195 56.411)"/><rect class="a" width="51.128" height="9.791" transform="translate(79.256 69.465)"/><rect class="a" width="51.128" height="9.791" transform="translate(79.256 102.1)"/></g><g transform="translate(2.332 2.332)"><path class="c" d="M43.661,43.322v9.329A4.678,4.678,0,0,0,39,57.315V71.309a4.678,4.678,0,0,0,4.664,4.664V85.3A4.678,4.678,0,0,0,39,89.966v13.993a4.678,4.678,0,0,0,4.664,4.664h-7A4.678,4.678,0,0,1,32,103.959V89.966A4.678,4.678,0,0,1,36.664,85.3V75.973A4.678,4.678,0,0,1,32,71.309V57.315a4.678,4.678,0,0,1,4.664-4.664V43.322A4.678,4.678,0,0,1,32,38.658V24.664A4.678,4.678,0,0,1,36.664,20h7A4.678,4.678,0,0,0,39,24.664V38.658A4.678,4.678,0,0,0,43.661,43.322Z" transform="translate(42.631 26.644)"/><path class="c" d="M11.661,23.322v9.329A4.678,4.678,0,0,0,7,37.315V51.309a4.678,4.678,0,0,0,4.664,4.664V65.3A4.678,4.678,0,0,0,7,69.966V83.959a4.678,4.678,0,0,0,4.664,4.664h-7A4.678,4.678,0,0,1,0,83.959V69.966A4.678,4.678,0,0,1,4.664,65.3V55.973A4.678,4.678,0,0,1,0,51.309V37.315a4.678,4.678,0,0,1,4.664-4.664V23.322A4.678,4.678,0,0,1,0,18.658V4.664A4.678,4.678,0,0,1,4.664,0h7A4.678,4.678,0,0,0,7,4.664V18.658A4.678,4.678,0,0,0,11.661,23.322Z" transform="translate(0 0)"/></g><path class="d" d="M6.332,9.664H20.325a2.332,2.332,0,1,0,0-4.664H6.332a2.332,2.332,0,1,0,0,4.664Z" transform="translate(5.329 6.661)"/><path class="d" d="M20.332,13.329A2.332,2.332,0,0,0,22.664,11V6.332a2.332,2.332,0,1,0-4.664,0V11A2.332,2.332,0,0,0,20.332,13.329Z" transform="translate(23.98 5.329)"/><path class="d" d="M24.332,13.329A2.332,2.332,0,0,0,26.664,11V6.332a2.332,2.332,0,1,0-4.664,0V11A2.332,2.332,0,0,0,24.332,13.329Z" transform="translate(29.309 5.329)"/><path class="d" d="M6.332,23.664H20.325a2.332,2.332,0,1,0,0-4.664H6.332a2.332,2.332,0,1,0,0,4.664Z" transform="translate(5.329 25.312)"/><path class="d" d="M20.332,27.329A2.332,2.332,0,0,0,22.664,25V20.332a2.332,2.332,0,1,0-4.664,0V25A2.332,2.332,0,0,0,20.332,27.329Z" transform="translate(23.98 23.98)"/><path class="d" d="M24.332,27.329A2.332,2.332,0,0,0,26.664,25V20.332a2.332,2.332,0,1,0-4.664,0V25A2.332,2.332,0,0,0,24.332,27.329Z" transform="translate(29.309 23.98)"/><path class="d" d="M20.325,33H6.332a2.332,2.332,0,0,0,0,4.664H20.325a2.332,2.332,0,0,0,0-4.664Z" transform="translate(5.329 43.963)"/><path class="d" d="M20.332,41.329A2.332,2.332,0,0,0,22.664,39V34.332a2.332,2.332,0,0,0-4.664,0V39A2.332,2.332,0,0,0,20.332,41.329Z" transform="translate(23.98 42.631)"/><path class="d" d="M24.332,41.329A2.332,2.332,0,0,0,26.664,39V34.332a2.332,2.332,0,0,0-4.664,0V39A2.332,2.332,0,0,0,24.332,41.329Z" transform="translate(29.309 42.631)"/><path class="d" d="M132.936,46.644H81.627a7,7,0,0,0-7,7V67.634A6.985,6.985,0,0,0,79.3,74.2v5.524a6.985,6.985,0,0,0-4.664,6.567v13.993a6.985,6.985,0,0,0,4.664,6.567v5.524a6.985,6.985,0,0,0-4.664,6.567v4.664H37.315a2.335,2.335,0,0,1-2.332-2.332V93.288H58.305a7,7,0,0,0,7-7V72.3a6.985,6.985,0,0,0-4.664-6.567V60.208A6.985,6.985,0,0,0,65.3,53.641V39.648a6.985,6.985,0,0,0-4.664-6.567V27.557A6.985,6.985,0,0,0,65.3,20.99V7a7,7,0,0,0-7-7H7A7,7,0,0,0,0,7V20.99a6.985,6.985,0,0,0,4.664,6.567v5.524A6.985,6.985,0,0,0,0,39.648V53.641a6.985,6.985,0,0,0,4.664,6.567v5.524A6.985,6.985,0,0,0,0,72.3V86.292a7,7,0,0,0,7,7H30.319v27.986a7,7,0,0,0,7,7H74.631v4.664a7,7,0,0,0,7,7h51.309a7,7,0,0,0,7-7V118.943a6.985,6.985,0,0,0-4.664-6.567v-5.524a6.985,6.985,0,0,0,4.664-6.567V86.292a6.985,6.985,0,0,0-4.664-6.567V74.2a6.985,6.985,0,0,0,4.664-6.567V53.641A7,7,0,0,0,132.936,46.644ZM9.329,60.637H55.973V65.3H9.329Zm0-32.651H55.973v4.664H9.329ZM4.664,7A2.335,2.335,0,0,1,7,4.664H58.305A2.335,2.335,0,0,1,60.637,7V20.99a2.335,2.335,0,0,1-2.332,2.332H7A2.335,2.335,0,0,1,4.664,20.99Zm0,32.651A2.335,2.335,0,0,1,7,37.315H58.305a2.335,2.335,0,0,1,2.332,2.332V53.641a2.335,2.335,0,0,1-2.332,2.332H7a2.335,2.335,0,0,1-2.332-2.332Zm0,46.644V72.3A2.335,2.335,0,0,1,7,69.966H58.305A2.335,2.335,0,0,1,60.637,72.3V86.292a2.335,2.335,0,0,1-2.332,2.332H7A2.335,2.335,0,0,1,4.664,86.292Zm125.939-7H83.959V74.631H130.6Zm0,32.651H83.959v-4.664H130.6Zm4.664,20.99a2.335,2.335,0,0,1-2.332,2.332H81.627a2.335,2.335,0,0,1-2.332-2.332V118.943a2.335,2.335,0,0,1,2.332-2.332h51.309a2.335,2.335,0,0,1,2.332,2.332Zm0-32.651a2.335,2.335,0,0,1-2.332,2.332H81.627a2.335,2.335,0,0,1-2.332-2.332V86.292a2.335,2.335,0,0,1,2.332-2.332h51.309a2.335,2.335,0,0,1,2.332,2.332Zm0-32.651a2.335,2.335,0,0,1-2.332,2.332H81.627A2.335,2.335,0,0,1,79.3,67.634V53.641a2.335,2.335,0,0,1,2.332-2.332h51.309a2.335,2.335,0,0,1,2.332,2.332Z" transform="translate(0)"/><path class="d" d="M52.325,25H38.332a2.332,2.332,0,0,0,0,4.664H52.325a2.332,2.332,0,1,0,0-4.664Z" transform="translate(47.959 33.305)"/><path class="d" d="M52.332,24A2.332,2.332,0,0,0,50,26.332V31a2.332,2.332,0,1,0,4.664,0V26.332A2.332,2.332,0,0,0,52.332,24Z" transform="translate(66.61 31.973)"/><path class="d" d="M56.332,24A2.332,2.332,0,0,0,54,26.332V31a2.332,2.332,0,0,0,4.664,0V26.332A2.332,2.332,0,0,0,56.332,24Z" transform="translate(71.939 31.973)"/><path class="d" d="M52.325,39H38.332a2.332,2.332,0,0,0,0,4.664H52.325a2.332,2.332,0,1,0,0-4.664Z" transform="translate(47.959 51.956)"/><path class="d" d="M52.332,38A2.332,2.332,0,0,0,50,40.332V45a2.332,2.332,0,0,0,4.664,0V40.332A2.332,2.332,0,0,0,52.332,38Z" transform="translate(66.61 50.624)"/><path class="d" d="M56.332,38A2.332,2.332,0,0,0,54,40.332V45a2.332,2.332,0,0,0,4.664,0V40.332A2.332,2.332,0,0,0,56.332,38Z" transform="translate(71.939 50.624)"/><path class="d" d="M52.325,53H38.332a2.332,2.332,0,0,0,0,4.664H52.325a2.332,2.332,0,0,0,0-4.664Z" transform="translate(47.959 70.607)"/><path class="d" d="M52.332,52A2.332,2.332,0,0,0,50,54.332V59a2.332,2.332,0,1,0,4.664,0V54.332A2.332,2.332,0,0,0,52.332,52Z" transform="translate(66.61 69.275)"/><path class="d" d="M56.332,52A2.332,2.332,0,0,0,54,54.332V59a2.332,2.332,0,0,0,4.664,0V54.332A2.332,2.332,0,0,0,56.332,52Z" transform="translate(71.939 69.275)"/></g></svg>