<svg xmlns="http://www.w3.org/2000/svg" width="86.122" height="84.237" viewBox="0 0 86.122 84.237"><defs><style>.a{fill:#f8f8f8;}.b{fill:#f2c81f;}</style></defs><g transform="translate(0)"><path d="M105.481,32.34a1.28,1.28,0,1,0-.535,1.595A1.291,1.291,0,0,0,105.481,32.34Zm0,0" transform="translate(-85.693 -26.257)"/><path d="M157.237,32.343a1.28,1.28,0,1,0-.526,1.589A1.29,1.29,0,0,0,157.237,32.343Zm0,0" transform="translate(-128.742 -26.26)"/><path d="M131.353,32.258a1.28,1.28,0,1,0-.482,1.562A1.293,1.293,0,0,0,131.353,32.258Zm0,0" transform="translate(-107.212 -26.175)"/><path d="M136.463,0H73.276a5.8,5.8,0,0,0-5.792,5.792V28.251a1.28,1.28,0,0,0,2.561,0V12.462h38.081V29.12a1.28,1.28,0,0,0,2.064,1.012L126.361,17.6a1.28,1.28,0,0,0,.225-1.8,21.99,21.99,0,0,0-3.229-3.338h16.338V62.151a3.235,3.235,0,0,1-3.231,3.231H99.42V59.739a21.782,21.782,0,0,0,26.828-25.182,1.28,1.28,0,0,0-2.515.481,19.373,19.373,0,0,1,.342,3.626,19.171,19.171,0,0,1-6.947,14.772l-10.5-14.52,14.151-11a19.135,19.135,0,0,1,1.864,3.475,1.28,1.28,0,1,0,2.369-.972,21.771,21.771,0,0,0-2.965-5.111,1.279,1.279,0,0,0-1.8-.224L106.15,36.047V18.181a1.28,1.28,0,0,0-1.28-1.281A21.765,21.765,0,0,0,90.956,55.4v9.981H87.727V57.356a1.281,1.281,0,0,0-1.281-1.281h-5.9a1.281,1.281,0,0,0-1.281,1.281v8.026H75.948V32.519a1.28,1.28,0,0,0-1.28-1.281h-5.9a1.28,1.28,0,0,0-1.28,1.281V79.481a1.28,1.28,0,0,0,1.28,1.28h5.9a1.28,1.28,0,0,0,1.28-1.28V67.943h3.316V79.481a1.28,1.28,0,0,0,1.281,1.28h5.9a1.28,1.28,0,0,0,1.281-1.28V67.943h3.229V79.481a1.28,1.28,0,0,0,1.281,1.28h5.9a1.28,1.28,0,0,0,1.281-1.28V67.943h37.044a5.8,5.8,0,0,0,5.792-5.792V5.792A5.8,5.8,0,0,0,136.463,0ZM70.046,78.2V33.8h3.342V78.2Zm11.778,0V58.637h3.342V78.2Zm3.842-39.537A19.229,19.229,0,0,1,103.589,19.5V38.664a1.276,1.276,0,0,0,.246.748l0,0,11.22,15.524A19.2,19.2,0,0,1,99.42,57.081V47.115a1.28,1.28,0,0,0-1.281-1.281h-5.9a1.28,1.28,0,0,0-1.281,1.281V51.9A19.079,19.079,0,0,1,85.667,38.664ZM93.516,78.2V48.395h3.342V78.2Zm17.17-51.693V10.029a19.086,19.086,0,0,1,13.057,6.361ZM119.532,9.9a21.764,21.764,0,0,0-10.127-2.475,1.28,1.28,0,0,0-1.28,1.281V9.9H70.045V5.792a3.235,3.235,0,0,1,3.231-3.231h63.187a3.235,3.235,0,0,1,3.231,3.231V9.9Zm0,0" transform="translate(-56.133)"/><path d="M404.625,351.887H391.054a1.281,1.281,0,1,0,0,2.561h13.571a1.281,1.281,0,0,0,0-2.561Zm0,0" transform="translate(-324.211 -292.697)"/><path d="M424.887,319.672h-9.474a1.28,1.28,0,0,0,0,2.561h9.474a1.28,1.28,0,0,0,0-2.561Zm0,0" transform="translate(-344.473 -265.901)"/><rect class="a" width="16" height="51" transform="translate(10.323 30.237)"/><rect class="a" width="20" height="28" transform="translate(21.323 56.237)"/><ellipse class="a" cx="3.5" cy="4.5" rx="3.5" ry="4.5" transform="translate(35.323 47.237)"/><ellipse class="a" cx="1.5" cy="1" rx="1.5" ry="1" transform="translate(29.323 55.237)"/><path class="b" d="M7.183,237.469h-5.9A1.281,1.281,0,0,0,0,238.749v38.257a1.28,1.28,0,0,0,1.281,1.28h5.9a1.28,1.28,0,0,0,1.281-1.28V266.659a1.281,1.281,0,1,0-2.561,0v9.066H2.561v-35.7H5.9v22.362a1.281,1.281,0,0,0,2.561,0V238.749A1.281,1.281,0,0,0,7.183,237.469Zm0,0" transform="translate(0 -197.525)"/><path class="b" d="M7.183,228.469h-5.9A1.281,1.281,0,0,0,0,229.749v47.257a1.28,1.28,0,0,0,1.281,1.28h5.9a1.28,1.28,0,0,0,1.281-1.28V245.659a1.281,1.281,0,1,0-2.561,0v30.066H2.561v-44.7H5.9v10.362a1.281,1.281,0,0,0,2.561,0V229.749A1.281,1.281,0,0,0,7.183,228.469Zm0,0" transform="translate(11.323 -197.525)"/><path class="b" d="M1.281,253.469h5.9a1.281,1.281,0,0,1,1.281,1.281v22.257a1.28,1.28,0,0,1-1.281,1.28h-5.9A1.28,1.28,0,0,1,0,277.006v-6.347a1.281,1.281,0,0,1,2.561,0v5.066H5.9v-19.7H2.561v10.362a1.281,1.281,0,0,1-2.561,0V254.749A1.281,1.281,0,0,1,1.281,253.469Zm0,0" transform="translate(22.323 -197.525)"/><rect class="a" width="9" height="36" transform="translate(35.323 45.237)"/><path class="b" d="M1.281,278.286h5.9a1.281,1.281,0,0,0,1.281-1.281V244.593a1.28,1.28,0,0,0-1.281-1.28h-5.9A1.28,1.28,0,0,0,0,244.593v10.347a1.281,1.281,0,0,0,2.561,0v-9.066H5.9v29.852H2.561V259.208a1.281,1.281,0,0,0-2.561,0v17.8A1.281,1.281,0,0,0,1.281,278.286Zm0,0" transform="translate(34.823 -197.525)"/></g></svg>