<svg xmlns="http://www.w3.org/2000/svg" width="98.953" height="92.954" viewBox="0 0 98.953 92.954"><defs><style>.a{fill:#f2c81f;}</style></defs><g transform="translate(0 -18.274)"><g transform="translate(17.985 69.25)"><g transform="translate(0 0)"><path d="M134.963,306.923a13.626,13.626,0,0,1-2.611-.083c-.062-.008-.122-.02-.182-.032a23.34,23.34,0,0,1-28.684,29.373,1.325,1.325,0,1,0-.728,2.548,25.981,25.981,0,0,0,32.2-31.806Z" transform="translate(-101.797 -306.808)"/></g></g><g transform="translate(0 18.274)"><ellipse class="a" cx="15" cy="6.5" rx="15" ry="6.5" transform="translate(26.49 29.203) rotate(31)"/><circle class="a" cx="25" cy="25" r="25" transform="matrix(-0.839, 0.545, -0.545, -0.839, 98.953, 65.722)"/><ellipse class="a" cx="15" cy="6" rx="15" ry="6" transform="translate(51.272 41.919) rotate(90)"/><path d="M70.382,50.885A26.05,26.05,0,0,0,33.778,20.9a1.328,1.328,0,1,0,1.165,2.388,23.157,23.157,0,0,1,10.239-2.355A23.386,23.386,0,0,1,67.759,50.407a26.373,26.373,0,0,0-3.342-.213q-.585,0-1.167.026c-.023,0-.046,0-.069,0a1.322,1.322,0,0,0-.2.017,25.8,25.8,0,0,0-14.044,5.06,26.356,26.356,0,0,0-3.723,3.346,26.366,26.366,0,0,0-3.723-3.346,25.8,25.8,0,0,0-14.134-5.064,1.344,1.344,0,0,0-.172-.012l-.039,0q-.566-.024-1.136-.025a26.39,26.39,0,0,0-3.4.22,23.39,23.39,0,0,1,5.11-21.649A1.328,1.328,0,1,0,25.734,27a26.057,26.057,0,0,0-5.746,23.909A26.041,26.041,0,0,0,9.941,96.7a1.328,1.328,0,1,0,1.644-2.087A23.385,23.385,0,0,1,20.8,53.446,26.144,26.144,0,0,0,39.218,69.664,26.041,26.041,0,1,0,70.382,50.885ZM25.856,57.462a23.345,23.345,0,0,1-2.388-4.475c.791-.085,2.388-.135,2.388-.135Zm5.531,5.719a23.585,23.585,0,0,1-2.874-2.487V52.986a23.272,23.272,0,0,1,2.874.485ZM37,66.217a23.3,23.3,0,0,1-2.952-1.347v-10.6A23.1,23.1,0,0,1,37,55.588ZM64.509,52.852a23.76,23.76,0,0,1,2.39.13,23.357,23.357,0,0,1-2.39,4.48Zm-5.531.633a23.322,23.322,0,0,1,2.874-.493v7.7a23.586,23.586,0,0,1-2.874,2.487Zm-5.609,2.137a23.11,23.11,0,0,1,2.952-1.335V64.87a23.3,23.3,0,0,1-2.952,1.347Zm-2.852,1.807c.064-.048.131-.092.2-.139v9.746c-.1.023-.192.048-.289.07A26.019,26.019,0,0,0,46.937,60.7,23.64,23.64,0,0,1,50.517,57.428ZM49.138,72.6H41.319a23.216,23.216,0,0,1,.524-2.463,26.177,26.177,0,0,0,6.767-.012A23.428,23.428,0,0,1,49.138,72.6Zm-3.925-9.721a23.206,23.206,0,0,1,2.515,4.676,23.406,23.406,0,0,1-5.033.007A23.2,23.2,0,0,1,45.213,62.882Zm-5.561,4.153V57.246c.085.061.172.119.256.182A23.643,23.643,0,0,1,43.5,60.712a25.859,25.859,0,0,0-3.483,6.41C39.9,67.094,39.774,67.065,39.652,67.035Zm1.381,9.2c0-.328.009-.653.022-.977.025,0,.05,0,.075,0H49.4q.02.486.021.973,0,.954-.079,1.9H41.111C41.06,77.507,41.033,76.874,41.033,76.234Zm.447,4.557h7.491a23.5,23.5,0,0,1-.791,2.952H42.27A23.2,23.2,0,0,1,41.481,80.791Zm3.753,8.8A23.441,23.441,0,0,1,43.362,86.4H47.1A23.317,23.317,0,0,1,45.234,89.589ZM64.417,99.617a23.331,23.331,0,0,1-17.469-7.858A26.018,26.018,0,0,0,51.23,69.644,26.145,26.145,0,0,0,69.576,53.427a23.383,23.383,0,0,1-5.159,46.19Z" transform="translate(0 -18.274)"/></g></g></svg>