<svg xmlns="http://www.w3.org/2000/svg" width="124.868" height="152.877" viewBox="0 0 124.868 152.877"><defs><style>.a,.b{fill:#fdf6df;}.b{stroke:#f2f2f2;stroke-linecap:round;stroke-linejoin:round;stroke-width:3px;}.c,.e{fill:#f2f2f2;}.d,.e{stroke:none;}</style></defs><g transform="translate(-42.727 1.5)"><g transform="translate(42.727 0)"><g class="a" transform="translate(-42.727 -120.804)"><path class="d" d="M 52.09210968017578 231.7210083007812 C 47.75526809692383 231.7210083007812 44.22698974609375 228.1927490234375 44.22698974609375 223.8559112548828 L 44.22698974609375 180.1521148681641 C 44.22698974609375 175.8152770996094 47.75526809692383 172.2870178222656 52.09210968017578 172.2870178222656 C 56.42895126342773 172.2870178222656 59.95722961425781 175.8152770996094 59.95722961425781 180.1521148681641 L 59.95722961425781 223.8559112548828 C 59.95722961425781 228.1927490234375 56.42895126342773 231.7210083007812 52.09210968017578 231.7210083007812 Z"/><path class="e" d="M 52.09210968017578 173.7870178222656 C 48.58236694335938 173.7870178222656 45.72698593139648 176.6423797607422 45.72698593139648 180.1521148681641 L 45.72698593139648 223.8559112548828 C 45.72698593139648 227.3656311035156 48.58236694335938 230.2210083007812 52.09210968017578 230.2210083007812 C 55.60185241699219 230.2210083007812 58.45723342895508 227.3656311035156 58.45723342895508 223.8559112548828 L 58.45723342895508 180.1521148681641 C 58.45723342895508 176.6423797607422 55.60185241699219 173.7870178222656 52.09210968017578 173.7870178222656 M 52.09210968017578 170.7870178222656 C 57.26429748535156 170.7870178222656 61.45723342895508 174.9799499511719 61.45723342895508 180.1521148681641 L 61.45723342895508 223.8559112548828 C 61.45723342895508 229.0280609130859 57.26429748535156 233.2210083007812 52.09210968017578 233.2210083007812 C 46.91994476318359 233.2210083007812 42.72698593139648 229.0280609130859 42.72698593139648 223.8559112548828 L 42.72698593139648 180.1521148681641 C 42.72698593139648 174.9799499511719 46.91994476318359 170.7870178222656 52.09210968017578 170.7870178222656 Z"/></g><g class="a" transform="translate(-299.255 -120.804)"><path class="d" d="M 414.7581176757812 231.7210083007812 C 410.4212951660156 231.7210083007812 406.8930358886719 228.1927490234375 406.8930358886719 223.8559112548828 L 406.8930358886719 180.1521148681641 C 406.8930358886719 175.8152770996094 410.4212951660156 172.2870178222656 414.7581176757812 172.2870178222656 C 419.094970703125 172.2870178222656 422.6232604980469 175.8152770996094 422.6232604980469 180.1521148681641 L 422.6232604980469 223.8559112548828 C 422.6232604980469 228.1927490234375 419.094970703125 231.7210083007812 414.7581176757812 231.7210083007812 Z"/><path class="e" d="M 414.7581176757812 173.7870178222656 C 411.2484130859375 173.7870178222656 408.3930358886719 176.6423797607422 408.3930358886719 180.1521148681641 L 408.3930358886719 223.8559112548828 C 408.3930358886719 227.3656311035156 411.2484130859375 230.2210083007812 414.7581176757812 230.2210083007812 C 418.2678833007812 230.2210083007812 421.1232604980469 227.3656311035156 421.1232604980469 223.8559112548828 L 421.1232604980469 180.1521148681641 C 421.1232604980469 176.6423797607422 418.2678833007812 173.7870178222656 414.7581176757812 173.7870178222656 M 414.7581176757812 170.7870178222656 C 419.9306030273438 170.7870178222656 424.1232604980469 174.9799499511719 424.1232604980469 180.1521148681641 L 424.1232604980469 223.8559112548828 C 424.1232604980469 229.0280609130859 419.9303588867188 233.2210083007812 414.7581176757812 233.2210083007812 C 409.5859375 233.2210083007812 405.3930358886719 229.0280609130859 405.3930358886719 223.8559112548828 L 405.3930358886719 180.1521148681641 C 405.3930358886719 174.9799499511719 409.5859375 170.7870178222656 414.7581176757812 170.7870178222656 Z"/></g><path class="b" d="M199.859,170.787H131.182a3.122,3.122,0,0,0-3.122,3.122v49.947a15.609,15.609,0,0,0,12.487,15.3v22.164a9.365,9.365,0,1,0,18.73,0V239.464h12.487v21.852a9.365,9.365,0,1,0,18.73,0V239.152a15.609,15.609,0,0,0,12.487-15.3V173.909A3.122,3.122,0,0,0,199.859,170.787Z" transform="translate(-103.086 -120.804)"/><path class="b" d="M188.214,12.972l7.611-7.6A3.122,3.122,0,1,0,191.487.876l-.077.077-8.866,8.866a42.725,42.725,0,0,0-34.045,0L139.634.947a3.122,3.122,0,0,0-4.414,4.414l7.6,7.611a32.946,32.946,0,0,0-14.766,27.646,3.122,3.122,0,0,0,3.122,3.122h68.678a3.122,3.122,0,0,0,3.122-3.122A32.947,32.947,0,0,0,188.214,12.972Z" transform="translate(-103.085 0)"/></g><g transform="translate(86.431 25.009)"><circle class="c" cx="3.122" cy="3.122" r="3.122" transform="translate(0)"/><circle class="c" cx="3.122" cy="3.122" r="3.122" transform="translate(31.217)"/></g></g></svg>