<svg xmlns="http://www.w3.org/2000/svg" width="88.813" height="109.826" viewBox="0 0 88.813 109.826"><defs><style>.a,.b{fill:#fdf6df;}.b{stroke:#f2c82b;stroke-linecap:round;stroke-linejoin:round;stroke-width:3px;}.c{fill:#f2c81f;}.d,.e{stroke:none;}.e{fill:#f2c82b;}</style></defs><g transform="translate(0 1.725)"><g transform="translate(0 0)"><g class="a" transform="translate(0 35.55)"><path class="d" d="M 6.66096019744873 42.90629577636719 C 3.815200090408325 42.90629577636719 1.500000238418579 40.59110260009766 1.500000238418579 37.74535369873047 L 1.500000238418579 6.660943984985352 C 1.500000238418579 3.815194129943848 3.815200090408325 1.500004053115845 6.66096019744873 1.500004053115845 C 9.506720542907715 1.500004053115845 11.82192039489746 3.815194129943848 11.82192039489746 6.660943984985352 L 11.82192039489746 37.74535369873047 C 11.82192039489746 40.59110260009766 9.506720542907715 42.90629577636719 6.66096019744873 42.90629577636719 Z"/><path class="e" d="M 6.66096019744873 2.999992370605469 C 4.642300605773926 2.999992370605469 3 4.642295837402344 3 6.660953521728516 L 3 37.74535369873047 C 3 39.76399230957031 4.642300605773926 41.40628433227539 6.66096019744873 41.40628433227539 C 8.679620742797852 41.40628433227539 10.32192039489746 39.76399230957031 10.32192039489746 37.74535369873047 L 10.32192039489746 6.660953521728516 C 10.32192039489746 4.642295837402344 8.679620742797852 2.999992370605469 6.66096019744873 2.999992370605469 M 6.66096019744873 -7.62939453125e-06 C 10.33969020843506 -7.62939453125e-06 13.32192039489746 2.982234954833984 13.32192039489746 6.660953521728516 L 13.32192039489746 37.74535369873047 C 13.32192039489746 41.42404556274414 10.33969020843506 44.40628433227539 6.66096019744873 44.40628433227539 C 2.982239723205566 44.40628433227539 0 41.42404556274414 0 37.74535369873047 L 0 6.660953521728516 C 0 2.982234954833984 2.982239723205566 -7.62939453125e-06 6.66096019744873 -7.62939453125e-06 Z"/></g><g class="a" transform="translate(75.491 35.55)"><path class="d" d="M 6.660925388336182 42.90629577636719 C 3.815175533294678 42.90629577636719 1.499995470046997 40.59110260009766 1.499995470046997 37.74535369873047 L 1.499995470046997 6.660943984985352 C 1.499995470046997 3.815194129943848 3.815175533294678 1.500004053115845 6.660925388336182 1.500004053115845 C 9.506705284118652 1.500004053115845 11.82191562652588 3.815194129943848 11.82191562652588 6.660943984985352 L 11.82191562652588 37.74535369873047 C 11.82191562652588 40.59110260009766 9.506705284118652 42.90629577636719 6.660925388336182 42.90629577636719 Z"/><path class="e" d="M 6.660925388336182 2.999992370605469 C 4.642285346984863 2.999992370605469 2.999995231628418 4.642295837402344 2.999995231628418 6.660953521728516 L 2.999995231628418 37.74535369873047 C 2.999995231628418 39.76399230957031 4.642285346984863 41.40628433227539 6.660925388336182 41.40628433227539 C 8.679605484008789 41.40628433227539 10.32191562652588 39.76399230957031 10.32191562652588 37.74535369873047 L 10.32191562652588 6.660953521728516 C 10.32191562652588 4.642295837402344 8.679605484008789 2.999992370605469 6.660925388336182 2.999992370605469 M 6.660925388336182 -7.62939453125e-06 C 10.33987522125244 -7.62939453125e-06 13.32191562652588 2.982234954833984 13.32191562652588 6.660953521728516 L 13.32191562652588 37.74535369873047 C 13.32191562652588 41.42404556274414 10.33970546722412 44.40628433227539 6.660925388336182 44.40628433227539 C 2.982205390930176 44.40628433227539 -4.76837158203125e-06 41.42404556274414 -4.76837158203125e-06 37.74535369873047 L -4.76837158203125e-06 6.660953521728516 C -4.76837158203125e-06 2.982234954833984 2.982205390930176 -7.62939453125e-06 6.660925388336182 -7.62939453125e-06 Z"/></g><path class="b" d="M51.067,0H2.22A2.22,2.22,0,0,0,0,2.22V37.745a11.1,11.1,0,0,0,8.881,10.88V64.389a6.661,6.661,0,1,0,13.322,0V48.847h8.881V64.389a6.661,6.661,0,1,0,13.322,0V48.625a11.1,11.1,0,0,0,8.881-10.88V2.22A2.221,2.221,0,0,0,51.067,0Z" transform="translate(17.762 35.55)"/><path class="b" d="M42.786,9.226,48.2,3.817A2.22,2.22,0,0,0,45.114.623l-.055.055L38.754,6.984a30.388,30.388,0,0,0-24.215,0L8.233.673a2.22,2.22,0,0,0-3.14,3.139L10.5,9.226A23.433,23.433,0,0,0,0,28.889a2.22,2.22,0,0,0,2.22,2.22H51.068a2.22,2.22,0,0,0,2.22-2.22A23.434,23.434,0,0,0,42.786,9.226Z" transform="translate(17.762)"/></g><g transform="translate(31.084 17.787)"><circle class="c" cx="2.22" cy="2.22" r="2.22" transform="translate(0)"/><circle class="c" cx="2.22" cy="2.22" r="2.22" transform="translate(22.203)"/></g></g></svg>