<svg xmlns="http://www.w3.org/2000/svg" width="123.034" height="150" viewBox="0 0 123.034 150"><defs><style>.a,.c{fill:#fdf6df;}.b,.e{fill:#f2f2f2;}.d,.e{stroke:none;}</style></defs><g transform="translate(-2309 -2708)"><g class="a" transform="translate(2262.978 2624.6)"><path class="d" d="M 86.95885467529297 231.4000701904297 L 86.81865692138672 231.4000701904297 C 82.08710479736328 231.3708190917969 77.23677062988281 229.0144348144531 72.40276336669922 224.3963012695312 C 67.98816680908203 220.1788635253906 63.63780212402344 214.0530548095703 59.82194519042969 206.6810913085938 C 52.76405715942383 193.0456848144531 48.02201843261719 176.0907287597656 48.02201843261719 164.4908294677734 C 48.02201843261719 155.9734497070312 49.51211166381836 148.4464569091797 52.450927734375 142.1189575195312 C 54.92094802856445 136.80078125 58.42467498779297 132.2952728271484 62.86479949951172 128.7275543212891 C 66.50218200683594 125.8048553466797 70.67307281494141 123.5651245117188 75.26161956787109 122.0705642700195 C 78.75585174560547 120.9324340820312 82.45934295654297 120.2796859741211 85.42250823974609 120.2796859741211 C 90.02205657958984 120.2796859741211 95.10842132568359 122.1564331054688 99.59601593017578 123.812255859375 C 103.169548034668 125.1275253295898 106.54345703125 126.3693237304688 108.7771301269531 126.3693237304688 C 110.162712097168 126.3693237304688 112.2424392700195 125.58544921875 115.5029449462891 124.2944717407227 L 115.6029815673828 124.2548675537109 C 120.4136581420898 122.3397064208984 126.3963088989258 119.9579620361328 133.2215881347656 119.9579620361328 L 133.2643280029297 119.9579620361328 C 135.8549652099609 119.9579620361328 141.0418701171875 120.2585067749023 146.6732940673828 122.2713241577148 C 153.6010131835938 124.7474670410156 159.1218414306641 129.0187377929688 163.0823974609375 134.9664916992188 L 164.3338470458984 136.8471069335938 L 162.5340423583984 138.2052001953125 C 160.1740417480469 139.9859619140625 156.610595703125 142.6747741699219 153.6970520019531 146.5819244384766 C 152.0765075683594 148.7551116943359 150.8124237060547 151.0995483398438 149.9398803710938 153.5501403808594 C 148.9212799072266 156.4109649658203 148.4048004150391 159.5000305175781 148.4048004150391 162.7315673828125 C 148.4048004150391 169.7664642333984 150.3920135498047 175.7812652587891 154.311279296875 180.6088714599609 C 157.5550079345703 184.6043853759766 161.4696960449219 186.9596710205078 163.8086395263672 188.3669128417969 L 163.8147430419922 188.3705749511719 L 163.8257293701172 188.377197265625 C 164.7790222167969 188.95068359375 165.6794586181641 189.4923553466797 166.2864379882812 190.1260528564453 C 166.7966766357422 190.6587371826172 167.0301361083984 191.186767578125 167.0537872314453 191.8725891113281 C 166.7453155517578 193.2595825195312 163.27880859375 202.9851989746094 157.0349578857422 212.7740020751953 C 151.6811676025391 221.1674194335938 143.1986236572266 231.1727294921875 133.19140625 231.1727294921875 C 128.4027099609375 231.1727294921875 125.0789489746094 229.7596282958984 121.8646011352539 228.3930816650391 C 118.5323257446289 226.9754180908203 115.3858032226562 225.6367645263672 110.3002548217773 225.6367645263672 C 107.5606918334961 225.6367645263672 104.4041290283203 226.8201293945312 101.0622406005859 228.0729827880859 L 101.0258941650391 228.0865478515625 C 96.86416625976562 229.6396942138672 92.14716339111328 231.4000701904297 86.95885467529297 231.4000701904297 Z"/><path class="e" d="M 86.95884704589844 229.4000701904297 C 91.78614807128906 229.4000701904297 96.12786865234375 227.7797546386719 100.3266525268555 226.2127685546875 L 100.3657531738281 226.1981811523438 L 100.3657531738281 226.1981811523438 C 103.8800659179688 224.8806762695312 107.1997375488281 223.6367797851562 110.3002471923828 223.6367797851562 C 115.793586730957 223.6367797851562 119.2774276733398 225.1189422607422 122.6471862792969 226.5525512695312 C 125.677131652832 227.8407135009766 128.8102264404297 229.1727294921875 133.19140625 229.1727294921875 C 136.9567565917969 229.1727294921875 140.8620452880859 227.5184326171875 144.7988433837891 224.2558135986328 C 148.2984466552734 221.3555145263672 151.7762298583984 217.2424774169922 155.1355895996094 212.0309295654297 C 160.8792114257812 203.1205902099609 164.3726501464844 193.9461975097656 165.0191955566406 191.7401733398438 C 164.9898071289062 191.6761322021484 164.9369659423828 191.6085205078125 164.8421173095703 191.5094909667969 C 164.4197540283203 191.0685577392578 163.5936279296875 190.5715637207031 162.7946929931641 190.0909423828125 L 162.7836761474609 190.0843200683594 L 162.7776031494141 190.0806579589844 C 160.3262481689453 188.6057891845703 156.2234344482422 186.1373291015625 152.7585906982422 181.8694915771484 C 148.5425262451172 176.6763153076172 146.4048156738281 170.2373809814453 146.4048156738281 162.7315521240234 C 146.4048156738281 156.2843322753906 148.31884765625 150.4485626220703 152.0937652587891 145.3862915039062 C 155.1780242919922 141.2502288818359 158.8786468505859 138.4579162597656 161.3293762207031 136.6087036132812 L 161.6245880126953 136.3859252929688 L 161.4176940917969 136.0750122070312 C 157.7009124755859 130.4933319091797 152.5137023925781 126.4827346801758 146.0001525878906 124.1546325683594 C 140.6527862548828 122.2433395385742 135.7254943847656 121.9579544067383 133.2643280029297 121.9579544067383 L 133.2215881347656 121.9579544067383 C 130.3899230957031 121.9579544067383 127.4682464599609 122.392219543457 124.28955078125 123.2855377197266 C 121.4179306030273 124.0925598144531 118.7235107421875 125.1652374267578 116.3462677001953 126.1116333007812 L 116.3427276611328 126.1130523681641 L 116.3391876220703 126.1144561767578 L 116.2391128540039 126.1540756225586 C 112.7702331542969 127.5275573730469 110.5539932250977 128.3693389892578 108.7771301269531 128.3693389892578 C 106.3673706054688 128.3693389892578 103.3044662475586 127.3083572387695 98.9036865234375 125.6886138916016 C 94.57318878173828 124.0907592773438 89.66488647460938 122.2796936035156 85.42250823974609 122.2796936035156 C 82.6611328125 122.2796936035156 79.18338775634766 122.896598815918 75.88101196289062 123.9722366333008 C 71.52339172363281 125.3915786743164 67.56558990478516 127.5160369873047 64.11750793457031 130.28662109375 C 59.91915130615234 133.6600952148438 56.60420989990234 137.9245147705078 54.26483154296875 142.9614105224609 C 51.44948959350586 149.0230560302734 50.02201080322266 156.2666015625 50.02201080322266 164.4908294677734 C 50.02201080322266 169.8287353515625 51.11943054199219 176.7454986572266 53.11211013793945 183.9669494628906 C 55.20005035400391 191.5336608886719 58.13444900512695 199.0701599121094 61.59811019897461 205.7617034912109 C 65.31362915039062 212.9398345947266 69.52754974365234 218.8835144042969 73.78430938720703 222.9501800537109 C 78.23562622070312 227.2026977539062 82.62335205078125 229.3727264404297 86.82642364501953 229.4000701904297 L 86.95884704589844 229.4000701904297 M 86.95884704589844 233.4000701904297 L 86.81295013427734 233.4000701904297 C 64.48842620849609 233.2714385986328 46.02201080322266 187.699462890625 46.02201080322266 164.4908294677734 C 46.02201080322266 126.579475402832 74.46196746826172 118.2796936035156 85.42250823974609 118.2796936035156 C 90.36196899414062 118.2796936035156 95.63630676269531 120.2194137573242 100.2883529663086 121.9359130859375 C 103.5414733886719 123.1332550048828 106.9059295654297 124.3693389892578 108.7771301269531 124.3693389892578 C 109.8971481323242 124.3693389892578 112.536491394043 123.3178787231445 114.8667678833008 122.3953170776367 C 119.8363876342773 120.4168548583984 126.020393371582 117.9579544067383 133.2215881347656 117.9579544067383 C 133.2344512939453 117.9579544067383 133.2517547607422 117.9579544067383 133.2643280029297 117.9579544067383 C 138.6414947509766 117.9579544067383 154.9452362060547 119.138053894043 164.7470855712891 133.8580017089844 L 167.0430755615234 137.3082885742188 L 163.7387084960938 139.8016815185547 C 159.0180969238281 143.3636627197266 150.4048156738281 149.8610687255859 150.4048156738281 162.7315521240234 C 150.4048156738281 177.9749603271484 160.1595153808594 183.8373107910156 164.8458099365234 186.6568298339844 C 166.9145355224609 187.9013519287109 169.0558166503906 189.1846008300781 169.0558166503906 191.9912414550781 C 169.0558166503906 193.8237609863281 154.4301910400391 233.1727294921875 133.19140625 233.1727294921875 C 127.9944305419922 233.1727294921875 124.3208694458008 231.610595703125 121.0806503295898 230.2330322265625 C 117.8020477294922 228.8381958007812 114.9736862182617 227.6367797851562 110.3002471923828 227.6367797851562 C 107.9313278198242 227.6367797851562 104.9356918334961 228.7567749023438 101.7643127441406 229.9457092285156 C 97.43042755126953 231.5630950927734 92.52494812011719 233.4000701904297 86.95884704589844 233.4000701904297 Z"/></g><path class="b" d="M283.335,0c.553,19.944-13.71,33.78-27.957,32.913C253.031,17,269.623,0,283.335,0Z" transform="translate(2115.115 2708)"/><path class="c" d="M283.335,0c.553,19.944-13.71,33.78-27.957,32.913C253.031,17,269.623,0,283.335,0Z" transform="translate(2119.115 2709)"/></g></svg>