<svg xmlns="http://www.w3.org/2000/svg" width="180" height="180" viewBox="0 0 180 180"><defs><style>.a{fill:#f2c82b;opacity:0.3;}.b,.e{fill:#fff;}.b{opacity:0.5;}.c{fill:#fbeebf;}.d{fill:#fdf6df;}.f{fill:#f2c81f;}</style></defs><g transform="translate(3 30)"><path class="a" d="M72,0V120H6a6.018,6.018,0,0,1-6-6v-6L21,81V6a6.018,6.018,0,0,1,6-6Z" transform="translate(0)"/><path class="a" d="M106,108v6a6.018,6.018,0,0,1-6,6H34V0H79a6.018,6.018,0,0,1,6,6V81Z" transform="translate(68)"/><path class="b" d="M60,0V120H6a6.018,6.018,0,0,1-6-6v-6L21,81V6a6.018,6.018,0,0,1,6-6Z" transform="translate(0)"/><path class="b" d="M94,108v6a6.018,6.018,0,0,1-6,6H34V0H67a6.018,6.018,0,0,1,6,6V81Z" transform="translate(68)"/><path class="c" d="M106,54H34V27H85Z" transform="translate(68 54)"/><path class="c" d="M72,27V54H0L21,27Z" transform="translate(0 54)"/><path class="d" d="M94,54H34V27H73Z" transform="translate(68 54)"/><path class="d" d="M60,27V54H0L21,27Z" transform="translate(0 54)"/><path class="d" d="M106,36v6a6.018,6.018,0,0,1-6,6H34V36Z" transform="translate(68 72)"/><path class="d" d="M72,36V48H6a6.018,6.018,0,0,1-6-6V36Z" transform="translate(0 72)"/></g><g transform="translate(3 29.829)"><rect class="e" width="8.396" height="120.342" transform="translate(102.392 0)"/><path class="e" d="M36,0a6.018,6.018,0,0,0-6,6V81L9,108v6a6.018,6.018,0,0,0,6,6H6a6.018,6.018,0,0,1-6-6v-6L21,81V6a6.018,6.018,0,0,1,6-6Z" transform="translate(0 0.171)"/></g><path class="e" d="M13,12V87H7V12Z" transform="translate(14 24)"/><path class="f" d="M10.024,25a3.012,3.012,0,0,0,2.13-5.13l-.45-.36a2.277,2.277,0,0,0-.541-.271,1.9,1.9,0,0,0-.541-.179,4.366,4.366,0,0,0-.6-.06,3.15,3.15,0,0,0-2.13.87,2.957,2.957,0,0,0,.989,4.89A3,3,0,0,0,10.024,25Z" transform="translate(13.976 38)"/><path class="f" d="M179.769,136.858c-.018-.044-.049-.077-.069-.12a2.951,2.951,0,0,0-.332-.58L159,109.97V36a9.01,9.01,0,0,0-9-9H105a3,3,0,0,0-3,3V150a3,3,0,0,0,3,3h33v18a3,3,0,0,1-3,3H93V6h33a3,3,0,0,1,3,3v4.758l-3.879-3.879a3,3,0,0,0-4.242,4.242l9,9a2.958,2.958,0,0,0,.887.589,2.834,2.834,0,0,0,.308.109,2.96,2.96,0,0,0,.718.14c.071.005.137.041.208.041.041,0,.081-.022.122-.024a3.013,3.013,0,0,0,.93-.181c.028-.011.058-.01.086-.021l.01,0a2.96,2.96,0,0,0,.88-.589c.028-.026.065-.034.093-.062l9-9a3,3,0,0,0-4.242-4.242L135,13.758V9a9.01,9.01,0,0,0-9-9H51a9.01,9.01,0,0,0-9,9V27H30a9.01,9.01,0,0,0-9,9V48a3,3,0,1,0,6,0V36a3,3,0,0,1,3-3H72v75H27V72a3,3,0,1,0-6,0v37.97L.631,136.159a2.951,2.951,0,0,0-.332.58c-.02.042-.051.076-.069.12a2.97,2.97,0,0,0-.208,1.029c0,.04-.023.073-.023.113v6a9.01,9.01,0,0,0,9,9H75a3,3,0,0,0,3-3V30a3,3,0,0,0-3-3H48V9a3,3,0,0,1,3-3H87V174H60a3,3,0,0,1-3-3v-4.758l3.879,3.879a3,3,0,1,0,4.242-4.242l-9-9a2.96,2.96,0,0,0-.892-.592,2.817,2.817,0,0,0-.294-.1,2.948,2.948,0,0,0-.743-.145,2.881,2.881,0,0,0-.305-.015,2.967,2.967,0,0,0-.945.184c-.026.01-.054.009-.08.02l-.01,0a2.96,2.96,0,0,0-.88.589c-.028.026-.065.034-.093.062l-9,9a3,3,0,1,0,4.242,4.242L51,166.242V171a9.01,9.01,0,0,0,9,9h75a9.01,9.01,0,0,0,9-9V153h27a9.01,9.01,0,0,0,9-9v-6c0-.04-.021-.073-.023-.113A2.97,2.97,0,0,0,179.769,136.858ZM25.468,114H72v9H42a3,3,0,1,0,0,6H72v6H9.133ZM6,144v-3H72v6H9A3,3,0,0,1,6,144Zm102-15h30a3,3,0,1,0,0-6H108v-9h46.532l16.334,21H108Zm45-93v72H108V33h42A3,3,0,0,1,153,36Zm21,108a3,3,0,0,1-3,3H108v-6h66Z"/><path class="f" d="M14,41H11a3,3,0,1,0,0,6h3a3,3,0,1,0,0-6Z" transform="translate(16 82)"/><path class="f" d="M55,41H52a3,3,0,1,0,0,6h3a3,3,0,0,0,0-6Z" transform="translate(98 82)"/></svg>