<svg xmlns="http://www.w3.org/2000/svg" width="99.527" height="99.527" viewBox="0 0 99.527 99.527"><defs><style>.a{fill:#f8f8f8;}.b{fill:#fdf6df;}.c{fill:#fff;}.d{fill:#f2c82b;}</style></defs><g transform="translate(0)"><g transform="translate(1.659 1.659)"><path class="a" d="M39.811,16.588v6.635a3.327,3.327,0,0,1,3.318,3.318v9.953a3.327,3.327,0,0,1-3.318,3.318v6.635a3.327,3.327,0,0,1,3.318,3.318v9.953a3.327,3.327,0,0,1-3.318,3.318H3.318A3.327,3.327,0,0,1,0,59.716V49.764a3.327,3.327,0,0,1,3.318-3.318V39.811A3.327,3.327,0,0,1,0,36.493V26.541a3.327,3.327,0,0,1,3.318-3.318V16.588A3.327,3.327,0,0,1,0,13.27V3.318A3.327,3.327,0,0,1,3.318,0H39.811a3.327,3.327,0,0,1,3.318,3.318V13.27A3.327,3.327,0,0,1,39.811,16.588Z" transform="translate(0 0)"/><path class="a" d="M71.811,36.588v6.635a3.327,3.327,0,0,1,3.318,3.318v9.953a3.327,3.327,0,0,1-3.318,3.318v6.635a3.327,3.327,0,0,1,3.318,3.318v9.953a3.327,3.327,0,0,1-3.318,3.318H35.318A3.327,3.327,0,0,1,32,79.716V69.764a3.327,3.327,0,0,1,3.318-3.318V59.811A3.327,3.327,0,0,1,32,56.493V46.541a3.327,3.327,0,0,1,3.318-3.318V36.588A3.327,3.327,0,0,1,32,33.27V23.318A3.327,3.327,0,0,1,35.318,20H71.811a3.327,3.327,0,0,1,3.318,3.318V33.27A3.327,3.327,0,0,1,71.811,36.588Z" transform="translate(21.081 13.176)"/><path class="b" d="M34.835,16.588v6.635a3.327,3.327,0,0,1,3.318,3.318v9.953a3.327,3.327,0,0,1-3.318,3.318v6.635a3.327,3.327,0,0,1,3.318,3.318v9.953a3.327,3.327,0,0,1-3.318,3.318H3.318A3.327,3.327,0,0,1,0,59.716V49.764a3.327,3.327,0,0,1,3.318-3.318V39.811A3.327,3.327,0,0,1,0,36.493V26.541a3.327,3.327,0,0,1,3.318-3.318V16.588A3.327,3.327,0,0,1,0,13.27V3.318A3.327,3.327,0,0,1,3.318,0H34.835a3.327,3.327,0,0,1,3.318,3.318V13.27A3.327,3.327,0,0,1,34.835,16.588Z" transform="translate(0 0)"/><path class="b" d="M66.835,36.588v6.635a3.327,3.327,0,0,1,3.318,3.318v9.953a3.327,3.327,0,0,1-3.318,3.318v6.635a3.327,3.327,0,0,1,3.318,3.318v9.953a3.327,3.327,0,0,1-3.318,3.318H35.318A3.327,3.327,0,0,1,32,79.716V69.764a3.327,3.327,0,0,1,3.318-3.318V59.811A3.327,3.327,0,0,1,32,56.493V46.541a3.327,3.327,0,0,1,3.318-3.318V36.588A3.327,3.327,0,0,1,32,33.27V23.318A3.327,3.327,0,0,1,35.318,20H66.835a3.327,3.327,0,0,1,3.318,3.318V33.27A3.327,3.327,0,0,1,66.835,36.588Z" transform="translate(21.081 13.176)"/><rect class="a" width="37.139" height="6.19" transform="translate(2.983 16.911)"/><rect class="a" width="37.139" height="6.19" transform="translate(2.983 40.123)"/><rect class="a" width="36.365" height="6.964" transform="translate(56.371 49.407)"/><rect class="a" width="36.365" height="6.964" transform="translate(56.371 72.619)"/></g><g transform="translate(1.659 1.659)"><path class="c" d="M40.294,36.588v6.635a3.327,3.327,0,0,0-3.318,3.318v9.953a3.327,3.327,0,0,0,3.318,3.318v6.635a3.327,3.327,0,0,0-3.318,3.318v9.953a3.327,3.327,0,0,0,3.318,3.318H35.318A3.327,3.327,0,0,1,32,79.716V69.764a3.327,3.327,0,0,1,3.318-3.318V59.811A3.327,3.327,0,0,1,32,56.493V46.541a3.327,3.327,0,0,1,3.318-3.318V36.588A3.327,3.327,0,0,1,32,33.27V23.318A3.327,3.327,0,0,1,35.318,20h4.976a3.327,3.327,0,0,0-3.318,3.318V33.27A3.327,3.327,0,0,0,40.294,36.588Z" transform="translate(21.081 13.176)"/><path class="c" d="M8.294,16.588v6.635a3.327,3.327,0,0,0-3.318,3.318v9.953a3.327,3.327,0,0,0,3.318,3.318v6.635a3.327,3.327,0,0,0-3.318,3.318v9.953a3.327,3.327,0,0,0,3.318,3.318H3.318A3.327,3.327,0,0,1,0,59.716V49.764a3.327,3.327,0,0,1,3.318-3.318V39.811A3.327,3.327,0,0,1,0,36.493V26.541a3.327,3.327,0,0,1,3.318-3.318V16.588A3.327,3.327,0,0,1,0,13.27V3.318A3.327,3.327,0,0,1,3.318,0H8.294A3.327,3.327,0,0,0,4.976,3.318V13.27A3.327,3.327,0,0,0,8.294,16.588Z" transform="translate(0 0)"/></g><path class="d" d="M5.659,8.318h9.953a1.659,1.659,0,0,0,0-3.318H5.659a1.659,1.659,0,1,0,0,3.318Z" transform="translate(2.635 3.294)"/><path class="d" d="M19.659,10.635a1.659,1.659,0,0,0,1.659-1.659V5.659a1.659,1.659,0,1,0-3.318,0V8.976A1.659,1.659,0,0,0,19.659,10.635Z" transform="translate(11.858 2.635)"/><path class="d" d="M23.659,10.635a1.659,1.659,0,0,0,1.659-1.659V5.659a1.659,1.659,0,1,0-3.318,0V8.976A1.659,1.659,0,0,0,23.659,10.635Z" transform="translate(14.493 2.635)"/><path class="d" d="M5.659,22.318h9.953a1.659,1.659,0,1,0,0-3.318H5.659a1.659,1.659,0,1,0,0,3.318Z" transform="translate(2.635 12.517)"/><path class="d" d="M19.659,24.635a1.659,1.659,0,0,0,1.659-1.659V19.659a1.659,1.659,0,0,0-3.318,0v3.318A1.659,1.659,0,0,0,19.659,24.635Z" transform="translate(11.858 11.858)"/><path class="d" d="M23.659,24.635a1.659,1.659,0,0,0,1.659-1.659V19.659a1.659,1.659,0,1,0-3.318,0v3.318A1.659,1.659,0,0,0,23.659,24.635Z" transform="translate(14.493 11.858)"/><path class="d" d="M15.612,33H5.659a1.659,1.659,0,0,0,0,3.318h9.953a1.659,1.659,0,0,0,0-3.318Z" transform="translate(2.635 21.74)"/><path class="d" d="M19.659,38.635a1.659,1.659,0,0,0,1.659-1.659V33.659a1.659,1.659,0,0,0-3.318,0v3.318A1.659,1.659,0,0,0,19.659,38.635Z" transform="translate(11.858 21.081)"/><path class="d" d="M23.659,38.635a1.659,1.659,0,0,0,1.659-1.659V33.659a1.659,1.659,0,0,0-3.318,0v3.318A1.659,1.659,0,0,0,23.659,38.635Z" transform="translate(14.493 21.081)"/><path class="d" d="M94.551,33.176H58.058a4.982,4.982,0,0,0-4.976,4.976V48.1A4.968,4.968,0,0,0,56.4,52.775V56.7a4.968,4.968,0,0,0-3.318,4.671v9.953A4.968,4.968,0,0,0,56.4,76v3.929A4.968,4.968,0,0,0,53.081,84.6v3.318H26.541a1.661,1.661,0,0,1-1.659-1.659V66.351H41.47a4.982,4.982,0,0,0,4.976-4.976V51.422a4.968,4.968,0,0,0-3.318-4.671V42.823a4.968,4.968,0,0,0,3.318-4.671V28.2a4.968,4.968,0,0,0-3.318-4.671V19.6a4.968,4.968,0,0,0,3.318-4.671V4.976A4.982,4.982,0,0,0,41.47,0H4.976A4.982,4.982,0,0,0,0,4.976v9.953A4.968,4.968,0,0,0,3.318,19.6v3.929A4.968,4.968,0,0,0,0,28.2v9.953a4.968,4.968,0,0,0,3.318,4.671v3.929A4.968,4.968,0,0,0,0,51.422v9.953a4.982,4.982,0,0,0,4.976,4.976H21.564V86.257a4.982,4.982,0,0,0,4.976,4.976H53.081v3.318a4.982,4.982,0,0,0,4.976,4.976H94.551a4.982,4.982,0,0,0,4.976-4.976V84.6a4.968,4.968,0,0,0-3.318-4.671V76a4.968,4.968,0,0,0,3.318-4.671V61.375A4.968,4.968,0,0,0,96.21,56.7V52.776A4.968,4.968,0,0,0,99.527,48.1V38.152A4.982,4.982,0,0,0,94.551,33.176ZM6.635,43.128H39.811v3.318H6.635Zm0-23.223H39.811v3.318H6.635ZM3.318,4.976A1.661,1.661,0,0,1,4.976,3.318H41.47a1.661,1.661,0,0,1,1.659,1.659v9.953a1.661,1.661,0,0,1-1.659,1.659H4.976a1.661,1.661,0,0,1-1.659-1.659Zm0,23.223a1.661,1.661,0,0,1,1.659-1.659H41.47A1.661,1.661,0,0,1,43.128,28.2v9.953a1.661,1.661,0,0,1-1.659,1.659H4.976a1.661,1.661,0,0,1-1.659-1.659Zm0,33.176V51.422a1.661,1.661,0,0,1,1.659-1.659H41.47a1.661,1.661,0,0,1,1.659,1.659v9.953a1.661,1.661,0,0,1-1.659,1.659H4.976A1.661,1.661,0,0,1,3.318,61.375ZM92.892,56.4H59.716V53.081H92.892Zm0,23.223H59.716V76.3H92.892ZM96.21,94.551a1.66,1.66,0,0,1-1.659,1.659H58.058A1.661,1.661,0,0,1,56.4,94.551V84.6a1.661,1.661,0,0,1,1.659-1.659H94.551A1.66,1.66,0,0,1,96.21,84.6Zm0-23.223a1.66,1.66,0,0,1-1.659,1.659H58.058A1.661,1.661,0,0,1,56.4,71.328V61.375a1.661,1.661,0,0,1,1.659-1.659H94.551a1.66,1.66,0,0,1,1.659,1.659Zm0-23.223a1.66,1.66,0,0,1-1.659,1.659H58.058A1.661,1.661,0,0,1,56.4,48.1V38.152a1.661,1.661,0,0,1,1.659-1.659H94.551a1.66,1.66,0,0,1,1.659,1.659Z" transform="translate(0)"/><path class="d" d="M47.612,25H37.659a1.659,1.659,0,0,0,0,3.318h9.953a1.659,1.659,0,1,0,0-3.318Z" transform="translate(23.716 16.47)"/><path class="d" d="M51.659,24A1.658,1.658,0,0,0,50,25.659v3.318a1.659,1.659,0,0,0,3.318,0V25.659A1.658,1.658,0,0,0,51.659,24Z" transform="translate(32.939 15.811)"/><path class="d" d="M55.659,24A1.658,1.658,0,0,0,54,25.659v3.318a1.659,1.659,0,1,0,3.318,0V25.659A1.658,1.658,0,0,0,55.659,24Z" transform="translate(35.575 15.811)"/><path class="d" d="M47.612,39H37.659a1.659,1.659,0,0,0,0,3.318h9.953a1.659,1.659,0,1,0,0-3.318Z" transform="translate(23.716 25.693)"/><path class="d" d="M51.659,38A1.658,1.658,0,0,0,50,39.659v3.318a1.659,1.659,0,0,0,3.318,0V39.659A1.658,1.658,0,0,0,51.659,38Z" transform="translate(32.939 25.034)"/><path class="d" d="M55.659,38A1.658,1.658,0,0,0,54,39.659v3.318a1.659,1.659,0,0,0,3.318,0V39.659A1.658,1.658,0,0,0,55.659,38Z" transform="translate(35.575 25.034)"/><path class="d" d="M47.612,53H37.659a1.659,1.659,0,0,0,0,3.318h9.953a1.659,1.659,0,1,0,0-3.318Z" transform="translate(23.716 34.916)"/><path class="d" d="M51.659,52A1.658,1.658,0,0,0,50,53.659v3.318a1.659,1.659,0,1,0,3.318,0V53.659A1.658,1.658,0,0,0,51.659,52Z" transform="translate(32.939 34.257)"/><path class="d" d="M55.659,52A1.658,1.658,0,0,0,54,53.659v3.318a1.659,1.659,0,1,0,3.318,0V53.659A1.658,1.658,0,0,0,55.659,52Z" transform="translate(35.575 34.257)"/></g></svg>