<svg xmlns="http://www.w3.org/2000/svg" width="179.557" height="179.557" viewBox="0 0 179.557 179.557"><defs><style>.a{fill:#f8f8f8;}.b{fill:#fdf6df;}.c{fill:#fff;}.d{fill:#f2f2f2;}</style></defs><g transform="translate(0 0)"><g transform="translate(2.993 2.993)"><path class="a" d="M133.69,64.072a19.631,19.631,0,0,1-11.043,17.776,18.469,18.469,0,0,1-8.29,1.945H27.332a19.736,19.736,0,0,1-17.3-28.46A19.482,19.482,0,0,1,24.01,44.71a35.209,35.209,0,0,1,4.579-29.926,33.453,33.453,0,0,1,56.8,2.065,23.582,23.582,0,0,1,9.636-2.065,24.4,24.4,0,0,1,24.15,24.659,24.835,24.835,0,0,1-.628,5.417A19.619,19.619,0,0,1,133.69,64.072Z" transform="translate(15.941 0)"/><path class="b" d="M124.712,67.072a19.246,19.246,0,0,1-2.065,8.8,18.469,18.469,0,0,1-8.29,1.945H27.332a19.736,19.736,0,0,1-17.3-28.46,17.832,17.832,0,0,1,5-1.646,27.728,27.728,0,0,1-.928-3.92,19.3,19.3,0,0,1,9.906-5.058A35.209,35.209,0,0,1,28.589,8.806,32.935,32.935,0,0,1,47.353,3,33.667,33.667,0,0,1,76.411,19.848a23.582,23.582,0,0,1,9.636-2.065A24.4,24.4,0,0,1,110.2,42.443a24.835,24.835,0,0,1-.628,5.417A19.619,19.619,0,0,1,124.712,67.072Z" transform="translate(15.941 5.978)"/><path class="a" d="M29.926,55.97V82.9A3,3,0,0,1,26.934,85.9H2.993A3,3,0,0,1,0,82.9V46.993A3,3,0,0,1,2.993,44H17.956Z" transform="translate(0 87.675)"/><path class="a" d="M77.926,55.97V82.9A3,3,0,0,1,74.933,85.9H50.993A3,3,0,0,1,48,82.9V46.993A3,3,0,0,1,50.993,44H65.956Z" transform="translate(95.645 87.675)"/><path class="a" d="M44.926,48.97V75.9A3,3,0,0,1,41.934,78.9H17.993A3,3,0,0,1,15,75.9V39.993A3,3,0,0,1,17.993,37H32.956Z" transform="translate(29.889 73.727)"/><path class="a" d="M62.926,48.97V75.9A3,3,0,0,1,59.934,78.9H35.993A3,3,0,0,1,33,75.9V39.993A3,3,0,0,1,35.993,37H50.956Z" transform="translate(65.756 73.727)"/><path class="b" d="M20.948,55.97V82.9A3,3,0,0,1,17.956,85.9H2.993A3,3,0,0,1,0,82.9V46.993A3,3,0,0,1,2.993,44H8.978Z" transform="translate(0 87.675)"/><path class="b" d="M68.948,55.97V82.9A3,3,0,0,1,65.956,85.9H50.993A3,3,0,0,1,48,82.9V46.993A3,3,0,0,1,50.993,44h5.985Z" transform="translate(95.645 87.675)"/><path class="b" d="M35.948,48.97V75.9A3,3,0,0,1,32.956,78.9H17.993A3,3,0,0,1,15,75.9V39.993A3,3,0,0,1,17.993,37h5.985Z" transform="translate(29.889 73.727)"/><path class="b" d="M53.948,48.97V75.9A3,3,0,0,1,50.956,78.9H35.993A3,3,0,0,1,33,75.9V39.993A3,3,0,0,1,35.993,37h5.985Z" transform="translate(65.756 73.727)"/><path class="a" d="M21.956,55.97v5.985H4V44H9.985Z" transform="translate(7.97 87.675)"/><path class="a" d="M69.956,55.97v5.985H52V44h5.985Z" transform="translate(103.616 87.675)"/><path class="a" d="M36.956,48.97v5.985H19V37h5.985Z" transform="translate(37.86 73.727)"/><path class="a" d="M54.956,48.97v5.985H37V37h5.985Z" transform="translate(73.727 73.727)"/></g><g transform="translate(2.993 2.993)"><path class="c" d="M56.331,0a37.458,37.458,0,0,1,4.549.3A33.566,33.566,0,0,0,37.567,14.784,35.209,35.209,0,0,0,32.988,44.71,19.708,19.708,0,0,0,36.31,83.793H27.332a19.736,19.736,0,0,1-17.3-28.46A19.482,19.482,0,0,1,24.01,44.71a35.209,35.209,0,0,1,4.579-29.926A33.451,33.451,0,0,1,56.331,0Z" transform="translate(15.941)"/><path class="c" d="M26.97,78.9H17.993A3,3,0,0,1,15,75.9V39.993A3,3,0,0,1,17.993,37H26.97a3,3,0,0,0-2.993,2.993V75.9A3,3,0,0,0,26.97,78.9Z" transform="translate(29.889 73.727)"/><path class="c" d="M44.97,78.9H35.993A3,3,0,0,1,33,75.9V39.993A3,3,0,0,1,35.993,37H44.97a3,3,0,0,0-2.993,2.993V75.9A3,3,0,0,0,44.97,78.9Z" transform="translate(65.756 73.727)"/><path class="c" d="M11.97,85.9H2.993A3,3,0,0,1,0,82.9V46.993A3,3,0,0,1,2.993,44H11.97a3,3,0,0,0-2.993,2.993V82.9A3,3,0,0,0,11.97,85.9Z" transform="translate(0 87.675)"/><path class="c" d="M59.97,85.9H50.993A3,3,0,0,1,48,82.9V46.993A3,3,0,0,1,50.993,44H59.97a3,3,0,0,0-2.993,2.993V82.9A3,3,0,0,0,59.97,85.9Z" transform="translate(95.645 87.675)"/></g><path class="c" d="M14.465,48.563A38.114,38.114,0,0,1,24.835,9.845,36.615,36.615,0,0,1,49.671,0V5.985a30.609,30.609,0,0,0-20.757,8.241,32.115,32.115,0,0,0-8.719,32.608Z" transform="translate(25.605 0)"/><path class="d" d="M43.756,0A36.614,36.614,0,0,0,18.921,9.845a21.6,21.6,0,0,0-2.28,2.316,2.877,2.877,0,0,0,.317,4.307,3.165,3.165,0,0,0,4.128-.3A16.788,16.788,0,0,1,23,14.226a30.388,30.388,0,0,1,47.232,7.142,2.99,2.99,0,0,0,3.81,1.21,20.287,20.287,0,0,1,8.39-1.8,21.443,21.443,0,0,1,21.178,21.651,21.909,21.909,0,0,1-.555,4.768,2.993,2.993,0,0,0,2.255,3.573,16.753,16.753,0,0,1-3.541,33.028H76.215a2.993,2.993,0,0,0,0,5.985h25.553a22.756,22.756,0,0,0,7.612-44.04,26.251,26.251,0,0,0,.213-3.314A27.432,27.432,0,0,0,82.431,14.788a26.219,26.219,0,0,0-8.415,1.375A36.374,36.374,0,0,0,43.757,0Z" transform="translate(31.519 0)"/><path class="d" d="M14.68,12.359a1.753,1.753,0,0,0,.453.334,4.175,4.175,0,0,0,.55.235,3.5,3.5,0,0,0,2.306-.136A2.928,2.928,0,0,0,19.5,9.1a3.436,3.436,0,0,0-.63-.978,3.2,3.2,0,0,0-.914-.729,2.893,2.893,0,0,0-2.285-.137,3.345,3.345,0,0,0-1.747,1.72,3.465,3.465,0,0,0,.041,2.45l.3.5A2.062,2.062,0,0,0,14.68,12.359Z" transform="translate(27.336 14.125)"/><path class="d" d="M8,45.181A22.547,22.547,0,0,0,30.33,67.89H49.9a2.993,2.993,0,1,0,0-5.985H30.33a16.73,16.73,0,0,1-2.808-33.148,2.993,2.993,0,0,0,2.418-3.473,2.823,2.823,0,0,0-.128-.323l.048-.014a30.856,30.856,0,0,1-1.294-10.822,3.173,3.173,0,0,0-2.736-3.114,2.871,2.871,0,0,0-3.243,2.843,35.59,35.59,0,0,0,.781,9.822A22.585,22.585,0,0,0,8,45.181Z" transform="translate(15.941 21.889)"/><path class="d" d="M178.678,100.683,166.712,88.717a3.032,3.032,0,0,0-2.118-.879H161.6V60.9a8.988,8.988,0,0,0-8.978-8.978H98.756V27.985h11.97a2.993,2.993,0,0,0,0-5.985H68.83a2.993,2.993,0,1,0,0,5.985h5.985V51.926H20.948A8.988,8.988,0,0,0,11.97,60.9V87.837H5.985A5.991,5.991,0,0,0,0,93.823v35.911a5.991,5.991,0,0,0,5.985,5.985H29.926a5.991,5.991,0,0,0,5.985-5.985V102.8a3.035,3.035,0,0,0-.878-2.117L23.065,88.715a3.035,3.035,0,0,0-2.117-.878H17.956V60.9a3,3,0,0,1,2.993-2.993H56.86v8.978H50.874a5.991,5.991,0,0,0-5.985,5.985v35.911a5.991,5.991,0,0,0,5.985,5.985H74.815a5.991,5.991,0,0,0,5.985-5.985V81.852a3.035,3.035,0,0,0-.878-2.117L67.954,67.767a3.035,3.035,0,0,0-2.117-.878H62.845V57.911H77.808A2.993,2.993,0,0,0,80.8,54.919V27.985h11.97V54.919a2.993,2.993,0,0,0,2.993,2.993h14.963v8.978h-5.985a5.991,5.991,0,0,0-5.985,5.985v35.911a5.991,5.991,0,0,0,5.985,5.985h23.941a5.991,5.991,0,0,0,5.985-5.985V81.852a3.035,3.035,0,0,0-.878-2.117L121.821,67.767a3.035,3.035,0,0,0-2.117-.878h-2.993V57.911h35.911a3,3,0,0,1,2.993,2.993V87.837h-5.985a5.992,5.992,0,0,0-5.985,5.985v35.911a5.992,5.992,0,0,0,5.985,5.985h23.941a5.992,5.992,0,0,0,5.985-5.985V102.8A3.032,3.032,0,0,0,178.678,100.683ZM5.985,129.734V93.823H11.97v14.963a2.993,2.993,0,0,0,2.993,2.993H29.926v17.956ZM19.709,93.823,29.926,104.04v1.753H17.956V93.823Zm31.165,14.963V72.874H56.86V87.837a2.993,2.993,0,0,0,2.993,2.993H74.815v17.956ZM64.6,72.874,74.815,83.091v1.753H62.845V72.874Zm40.143,35.911V72.874h5.985V87.837a2.993,2.993,0,0,0,2.993,2.993h14.963v17.956Zm13.724-35.911,10.217,10.217v1.753h-11.97V72.874ZM161.6,93.823h1.753l10.217,10.217v1.753H161.6Zm-11.97,35.911V93.823h5.985v14.963a2.992,2.992,0,0,0,2.993,2.993h14.963v17.956Z" transform="translate(0 43.837)"/></g></svg>