<svg xmlns="http://www.w3.org/2000/svg" width="159.02" height="180" viewBox="0 0 159.02 180"><defs><style>.a{fill:#f8f8f8;}.b{fill:#fdf6df;}.c{fill:#fbeebf;}.d{fill:#fff;}.e{fill:#f2f2f2;}</style></defs><g transform="translate(0 0)"><g transform="translate(3 2.978)"><path class="a" d="M66.007,6v96.012L12,129.015V39L54.005,13.321Z" transform="translate(24.004 12.002)"/><path class="b" d="M54.005,8.44v91.691L12,121.134V34.123Z" transform="translate(24.004 16.883)"/><path class="b" d="M36,44V89.008l-36-18V26Z" transform="translate(0 52.01)"/><path class="b" d="M36,39V54L0,36V21Z" transform="translate(0 42.008)"/><path class="c" d="M36,34V49L0,31V16Z" transform="translate(0 32.006)"/><path class="b" d="M36,29V44L0,26V11Z" transform="translate(0 22.004)"/><path class="b" d="M90.011,18,36,51.006,0,33,54.007,0Z"/><path class="b" d="M45.5,27C31.418,27,20,29.687,20,33V81.007c0,3.3,11.431,6,25.5,6s25.5-2.7,25.5-6V33C71.006,29.687,59.588,27,45.5,27Z" transform="translate(40.007 54.01)"/><ellipse class="b" cx="25.188" cy="6.297" rx="25.188" ry="6.297" transform="translate(59.969 80.981)"/><path class="b" d="M59.5,38C45.418,38,34,40.687,34,44V92.007c0,3.3,11.431,6,25.5,6s25.5-2.7,25.5-6V44C85.006,40.687,73.588,38,59.5,38Z" transform="translate(68.013 76.014)"/><ellipse class="b" cx="25.188" cy="5.597" rx="25.188" ry="5.597" transform="translate(101.949 114.565)"/></g><g transform="translate(3 2.978)"><path class="d" d="M9,123.015l28.353,14.162-1.35.84v3l-36-18V33L54.007,0l9,6L9,39Z"/></g><path class="d" d="M57.612,5.266l-33.28,20.34L3.605,38.27.479,33.151,21.2,20.486,54.486.147Z" transform="translate(0.958 0.272)"/><path class="e" d="M13.466,10.116A3.042,3.042,0,0,0,17.1,7.895l.073-.572a2.277,2.277,0,0,0-.051-.6,1.9,1.9,0,0,0-.129-.555,4.36,4.36,0,0,0-.261-.543A3.151,3.151,0,0,0,14.88,4.26a2.958,2.958,0,0,0-3.657,3.394,3,3,0,0,0,.39,1.1A3.159,3.159,0,0,0,13.466,10.116Z" transform="translate(22.353 8.307)"/><path class="e" d="M130.516,114a104.5,104.5,0,0,0-13.5.885V90c0-6.179-12.331-8.12-21-8.726V20.988c0-.1-.03-.187-.04-.282a2.859,2.859,0,0,0-.042-.3,2.984,2.984,0,0,0-.345-.948l-.013-.037-.006-.006a2.994,2.994,0,0,0-.711-.767,2.858,2.858,0,0,0-.251-.173,2.9,2.9,0,0,0-.251-.173l-36-18a2.961,2.961,0,0,0-2.878.17L55.443.425,45.2,6.684a3,3,0,1,0,3.129,5.12l8.821-5.391L86.827,21.25,38.859,50.564,9.184,35.727,27.85,24.32a3,3,0,0,0-3.129-5.12L1.436,33.43v0l-.014.006A3,3,0,0,0,0,35.99V126a3,3,0,0,0,1.658,2.684l36,18c.027.013.058.008.085.02A3.005,3.005,0,0,0,39,147h.006a3,3,0,0,0,.807-.112c.075-.021.142-.067.216-.094a2.913,2.913,0,0,0,.539-.234l19.438-11.881V138c0,8.567,23.744,9,28.5,9a97.692,97.692,0,0,0,13.5-.894v24.9c0,8.567,23.744,9,28.5,9s28.5-.434,28.5-9V123C159.02,114.433,135.276,114,130.516,114Zm21.521,9a59.719,59.719,0,0,1-21.521,3,59.719,59.719,0,0,1-21.521-3,59.718,59.718,0,0,1,21.521-3A59.718,59.718,0,0,1,152.037,123ZM110.032,90a59.719,59.719,0,0,1-21.521,3A59.718,59.718,0,0,1,66.99,90a59.718,59.718,0,0,1,21.521-3A59.719,59.719,0,0,1,110.032,90ZM36,79.14l-30-15V55.847l30,15ZM6,70.848l30,15v8.292l-30-15Zm30-6.71-30-15V40.845l30,15ZM6,124.146V85.85l30,15v38.3Zm36,14.506V55.675L90.011,26.338V81.01C89.418,81,88.888,81,88.511,81c-4.76,0-28.5.434-28.5,9v37.653ZM88.511,141c-12.967,0-20.841-2.263-22.5-3.578v-5.42a76.2,76.2,0,0,0,22.5,3,3,3,0,1,0,0-6c-12.981,0-20.85-2.257-22.5-3.57V120a76.2,76.2,0,0,0,22.5,3,3,3,0,1,0,0-6c-12.981,0-20.85-2.257-22.5-3.57V108a76.2,76.2,0,0,0,22.5,3,3,3,0,1,0,0-6c-12.981,0-20.85-2.257-22.5-3.57V96a76.2,76.2,0,0,0,22.5,3,76.2,76.2,0,0,0,22.5-3V116.06c-5.016,1.31-9,3.438-9,6.94v17.027A89.052,89.052,0,0,1,88.511,141Zm42.005,33c-12.967,0-20.841-2.263-22.5-3.578v-5.42a76.205,76.205,0,0,0,22.5,3,3,3,0,0,0,0-6c-12.981,0-20.85-2.257-22.5-3.57v-5.428a76.2,76.2,0,0,0,22.5,3,3,3,0,0,0,0-6c-12.981,0-20.85-2.257-22.5-3.57v-5.428a76.2,76.2,0,0,0,22.5,3,3,3,0,0,0,0-6c-12.981,0-20.85-2.257-22.5-3.57V129a76.2,76.2,0,0,0,22.5,3,76.205,76.205,0,0,0,22.5-3v41.439C151.316,171.759,143.433,174.007,130.516,174.007Z" transform="translate(0 -0.007)"/></g></svg>