<svg xmlns="http://www.w3.org/2000/svg" width="113.103" height="128.025" viewBox="0 0 113.103 128.025"><defs><style>.a{fill:#f8f8f8;}.b{fill:#fdf6df;}.c{fill:#fbeebf;}.d{fill:#fff;}.e{fill:#f2f2f2;}.f{fill:#f2c82b;}</style></defs><g transform="translate(0 0)"><g transform="translate(2.134 2.118)"><path class="a" d="M50.412,6V74.289L12,93.495V29.474L41.876,11.207Z" transform="translate(13.608 6.804)"/><path class="b" d="M41.876,8.44V73.656L12,88.594V26.707Z" transform="translate(13.608 9.571)"/><path class="b" d="M25.608,38.8v32.01L0,58.01V26Z" transform="translate(0 29.484)"/><path class="b" d="M25.608,33.8v10.67L0,31.67V21Z" transform="translate(0 23.814)"/><path class="c" d="M25.608,28.8v10.67L0,26.67V16Z" transform="translate(0 18.144)"/><path class="b" d="M25.608,23.8v10.67L0,21.67V11Z" transform="translate(0 12.474)"/><path class="c" d="M64.021,12.8,25.608,36.278,0,23.474,38.412,0Z"/><path class="b" d="M38.139,27C28.121,27,20,28.911,20,31.268V65.412c0,2.347,8.131,4.268,18.139,4.268s18.139-1.921,18.139-4.268V31.268C56.278,28.911,48.157,27,38.139,27Z" transform="translate(22.68 30.618)"/><ellipse class="c" cx="17.915" cy="4.479" rx="17.915" ry="4.479" transform="translate(42.653 57.598)"/><path class="b" d="M52.139,38C42.121,38,34,39.911,34,42.268V76.412c0,2.347,8.131,4.268,18.139,4.268s18.139-1.921,18.139-4.268V42.268C70.278,39.911,62.157,38,52.139,38Z" transform="translate(38.557 43.093)"/><ellipse class="c" cx="17.915" cy="3.981" rx="17.915" ry="3.981" transform="translate(72.512 81.485)"/></g><g transform="translate(2.134 2.118)"><path class="d" d="M6.4,87.495,26.569,97.567l-.96.6V100.3L0,87.495V23.474L38.412,0l6.4,4.268L6.4,27.742Z"/></g><path class="d" d="M41.115,3.788,17.444,18.254,2.7,27.262.479,23.621l14.74-9.008L38.891.147Z" transform="translate(0.543 0.151)"/><path class="e" d="M12.8,8.4a2.164,2.164,0,0,0,2.586-1.58l.052-.407a1.619,1.619,0,0,0-.036-.429,1.354,1.354,0,0,0-.092-.394,3.1,3.1,0,0,0-.186-.386,2.241,2.241,0,0,0-1.318-.97,2.1,2.1,0,0,0-2.6,2.414,2.134,2.134,0,0,0,.278.782A2.247,2.247,0,0,0,12.8,8.4Z" transform="translate(12.672 4.706)"/><path class="f" d="M92.83,81.084a74.325,74.325,0,0,0-9.6.63v-17.7c0-4.395-8.77-5.775-14.938-6.206V14.93c0-.069-.022-.133-.028-.2a2.034,2.034,0,0,0-.03-.212,2.122,2.122,0,0,0-.245-.674l-.009-.026,0,0a2.13,2.13,0,0,0-.506-.545,2.033,2.033,0,0,0-.178-.123,2.064,2.064,0,0,0-.179-.123L41.5.217a2.106,2.106,0,0,0-2.047.121L39.434.3,32.15,4.756A2.134,2.134,0,1,0,34.375,8.4L40.65,4.564,61.756,15.117,27.638,35.966,6.532,25.413,19.808,17.3a2.134,2.134,0,0,0-2.226-3.642L1.021,23.779h0l-.01,0A2.136,2.136,0,0,0,0,25.6V89.62a2.135,2.135,0,0,0,1.18,1.909l25.608,12.8c.019.01.041.005.06.014a2.138,2.138,0,0,0,.892.21h0a2.134,2.134,0,0,0,.574-.079c.053-.015.1-.048.153-.067a2.072,2.072,0,0,0,.384-.167L42.68,95.8v2.361c0,6.094,16.888,6.4,20.273,6.4a69.482,69.482,0,0,0,9.6-.636v17.708c0,6.094,16.888,6.4,20.273,6.4s20.273-.308,20.273-6.4V87.486C113.1,81.393,96.215,81.084,92.83,81.084Zm15.307,6.4A42.475,42.475,0,0,1,92.83,89.62a42.475,42.475,0,0,1-15.307-2.134A42.475,42.475,0,0,1,92.83,85.352,42.475,42.475,0,0,1,108.137,87.486ZM78.261,64.012a42.475,42.475,0,0,1-15.307,2.134,42.475,42.475,0,0,1-15.307-2.134,42.475,42.475,0,0,1,15.307-2.134A42.475,42.475,0,0,1,78.261,64.012ZM25.608,56.291,4.268,45.621v-5.9l21.34,10.67Zm-21.34-5.9,21.34,10.67v5.9L4.268,56.291Zm21.34-4.772L4.268,34.951v-5.9l21.34,10.67ZM4.268,88.3V61.063l21.34,10.67V98.971ZM29.876,98.619V39.6L64.021,18.735V57.62c-.422-.006-.8-.01-1.067-.01-3.385,0-20.273.308-20.273,6.4v26.78Zm33.077,1.672c-9.223,0-14.823-1.609-16.005-2.545V93.891a54.2,54.2,0,0,0,16.005,2.131,2.134,2.134,0,1,0,0-4.268c-9.233,0-14.83-1.605-16.005-2.539v-3.86a54.2,54.2,0,0,0,16.005,2.131,2.134,2.134,0,1,0,0-4.268c-9.233,0-14.83-1.605-16.005-2.539v-3.86A54.2,54.2,0,0,0,62.954,78.95a2.134,2.134,0,1,0,0-4.268c-9.233,0-14.83-1.605-16.005-2.539v-3.86a54.2,54.2,0,0,0,16.005,2.131,54.2,54.2,0,0,0,16.005-2.131V82.55c-3.568.932-6.4,2.446-6.4,4.936V99.6A63.34,63.34,0,0,1,62.954,100.29ZM92.83,123.765c-9.223,0-14.823-1.609-16.005-2.545v-3.855A54.2,54.2,0,0,0,92.83,119.5a2.134,2.134,0,1,0,0-4.268c-9.233,0-14.83-1.605-16.005-2.539v-3.86a54.2,54.2,0,0,0,16.005,2.131,2.134,2.134,0,1,0,0-4.268c-9.233,0-14.83-1.605-16.005-2.539v-3.86a54.2,54.2,0,0,0,16.005,2.131,2.134,2.134,0,1,0,0-4.268c-9.233,0-14.83-1.605-16.005-2.539v-3.86A54.2,54.2,0,0,0,92.83,93.888a54.2,54.2,0,0,0,16.005-2.131V121.23C107.624,122.166,102.017,123.765,92.83,123.765Z" transform="translate(0 -0.007)"/></g></svg>