<svg xmlns="http://www.w3.org/2000/svg" width="10" height="10" viewBox="0 0 10 10"><defs><style>.a{fill:#fff;}</style></defs><path class="a" d="M9.974,4.271a.536.536,0,0,0-.458-.381L6.63,3.616,5.489.829a.523.523,0,0,0-.978,0L3.37,3.616.483,3.89a.537.537,0,0,0-.457.381.57.57,0,0,0,.155.589l2.182,2L1.72,9.814a.567.567,0,0,0,.207.573.51.51,0,0,0,.584.027L5,8.86l2.489,1.553a.511.511,0,0,0,.584-.027.567.567,0,0,0,.207-.573L7.636,6.857l2.182-2A.571.571,0,0,0,9.974,4.271Zm0,0" transform="translate(0 -0.492)"/></svg>